<?xml version="1.0" encoding="UTF-8"?>
<svg version="1.1" xmlns="http://www.w3.org/2000/svg" width="500" height="500">
<path d="M0 0 C4.69513273 4.3597661 7.01225549 8.72497432 7.3161478 15.13270664 C7.32904315 15.81199695 7.3419385 16.49128725 7.35522461 17.19116211 C7.38351066 17.92491782 7.4117967 18.65867353 7.4409399 19.41466427 C7.52400032 21.7555502 7.57772528 24.0956376 7.625 26.4375 C7.6437682 27.1915575 7.66253639 27.94561501 7.68187332 28.72252274 C7.8178839 34.27429321 7.88511322 39.82584454 7.94140625 45.37890625 C7.96205016 47.12581285 7.98304811 48.8727153 8.00437927 50.61961365 C8.05883418 55.15510635 8.1085717 59.69063816 8.15722656 64.22619629 C8.20801129 68.87934736 8.26339588 73.53244362 8.31835938 78.18554688 C8.42499998 87.26948413 8.52664232 96.35346954 8.625 105.4375 C9.285 105.1075 9.945 104.7775 10.625 104.4375 C12.66662381 104.34080875 14.71145942 104.30953413 16.75537109 104.30810547 C18.04365814 104.30495331 19.33194519 104.30180115 20.65927124 104.29855347 C22.07232701 104.30034368 23.48538246 104.30239474 24.8984375 104.3046875 C26.34331275 104.30401402 27.78818788 104.30304363 29.23306274 104.30178833 C32.26443559 104.3003125 35.29577901 104.30246162 38.32714844 104.30712891 C42.20987489 104.31281595 46.09253207 104.30955299 49.97525597 104.30355644 C52.96068847 104.29993906 55.94610462 104.30109501 58.93153763 104.30368423 C60.36285027 104.30435077 61.79416441 104.30353462 63.22547531 104.30120468 C65.22892986 104.29866004 67.23238962 104.30322733 69.23583984 104.30810547 C70.37564301 104.30890106 71.51544617 104.30969666 72.68978882 104.31051636 C75.18829945 104.41860738 77.24723684 104.70677676 79.625 105.4375 C79.61247192 104.85424957 79.59994385 104.27099915 79.58703613 103.67007446 C79.26716011 88.6777899 78.98755189 73.6851444 78.74511719 58.69140625 C78.67063486 54.08964739 78.58841909 49.48817249 78.49707031 44.88671875 C78.40173956 40.00848198 78.33176868 35.13056623 78.28295898 30.25164795 C78.2611423 28.47160861 78.23050838 26.69165356 78.19067383 24.91192627 C77.82331708 8.00188569 77.82331708 8.00188569 83.625 1.4375 C88.44853261 -2.15210566 93.80392682 -2.30214131 99.625 -1.5625 C101.9296875 -0.54296875 101.9296875 -0.54296875 103.625 0.4375 C103.625 1.0975 103.625 1.7575 103.625 2.4375 C104.285 2.4375 104.945 2.4375 105.625 2.4375 C109.5007183 8.15293682 110.22560961 12.33585911 110.24682617 19.16479492 C110.2745536 20.59046532 110.2745536 20.59046532 110.30284119 22.04493713 C110.35926743 25.16928051 110.38858116 28.29326431 110.41796875 31.41796875 C110.45287637 33.59559574 110.48963161 35.77319382 110.52815247 37.95075989 C110.62501612 43.67171084 110.69951365 49.39272784 110.76849365 55.11407471 C110.88340485 64.28194808 111.03493275 73.44931392 111.18151283 82.61672401 C111.22991001 85.81850451 111.27042105 89.02030587 111.30937195 92.22221375 C111.33662058 94.18093983 111.36394495 96.13966487 111.39135742 98.09838867 C111.40017944 98.98938263 111.40900146 99.88037659 111.41809082 100.79837036 C111.43051315 101.61834 111.44293549 102.43830963 111.45573425 103.28312683 C111.46436587 103.99303363 111.47299749 104.70294043 111.48189068 105.43435955 C111.56828851 107.47546772 111.56828851 107.47546772 112.16283798 109.54958057 C112.78061987 112.07320298 112.1655791 113.90753186 111.625 116.4375 C111.56684316 118.51091594 111.56508191 120.58627645 111.60327148 122.66015625 C111.62333755 123.90295349 111.64340363 125.14575073 111.66407776 126.4262085 C111.69134272 127.78414048 111.71868355 129.14207094 111.74609375 130.5 C111.77074449 131.91798004 111.79485772 133.33596951 111.81846619 134.75396729 C111.86918644 137.75941148 111.92279712 140.76478489 111.97845459 143.7701416 C112.06397895 148.43875313 112.13726901 153.1075037 112.20751953 157.77636719 C112.21913998 158.54491405 112.23076042 159.31346092 112.242733 160.10529709 C112.26608325 161.6503801 112.28941022 163.19546346 112.31271362 164.74054718 C112.46104866 174.53114573 112.61799559 184.32126352 112.81806946 194.11096191 C112.8836206 197.54731304 112.9297626 200.98365658 112.9680481 204.42041016 C112.98910387 205.91438485 113.01922102 207.4082634 113.05905151 208.90185547 C113.27242244 217.0092522 113.25298194 223.20362463 107.625 229.4375 C103.7397136 233.09424014 99.39402276 232.94033446 94.28515625 232.7890625 C90.50885411 232.28999173 88.40309869 231.00724129 85.625 228.4375 C81.7716263 222.98962684 81.43678156 218.16611895 81.30859375 211.6640625 C81.27735413 210.32033569 81.27735413 210.32033569 81.2454834 208.94946289 C81.17894918 205.98723264 81.12026318 203.02491345 81.0625 200.0625 C81.04132111 199.05338562 81.02014221 198.04427124 80.99832153 197.00457764 C80.52929329 174.47923562 80.55324735 151.96783063 80.625 129.4375 C56.865 129.4375 33.105 129.4375 8.625 129.4375 C8.955 136.0375 9.285 142.6375 9.625 149.4375 C9.87947454 160.35133266 9.97784287 171.2617685 10.0300293 182.17797852 C10.04803035 185.58297141 10.08321814 188.9871653 10.13256836 192.3918457 C10.19279624 196.55823101 10.22349648 200.72386159 10.23320198 204.89066124 C10.24171713 206.46193045 10.26043734 208.03318137 10.2899456 209.60419655 C10.53394852 223.2905589 10.53394852 223.2905589 6.83618164 227.82299805 C3.22218422 231.26325772 -0.27720825 232.72676266 -5.25 232.75 C-9.67693362 232.63932666 -12.69055103 232.06924927 -16.375 229.4375 C-21.0409066 223.51053756 -21.52356524 218.90756154 -21.67211914 211.56518555 C-21.69175815 210.76529677 -21.71139715 209.965408 -21.73163128 209.14128017 C-21.79603653 206.45234878 -21.85337557 203.76332133 -21.91015625 201.07421875 C-21.95367142 199.14012373 -21.99731486 197.20603159 -22.04107666 195.27194214 C-22.18256143 188.88981001 -22.31089076 182.50744208 -22.4375 176.125 C-22.45942287 175.03711559 -22.48134575 173.94923119 -22.50393295 172.82838058 C-23.24749467 135.79260623 -23.61941085 98.7595037 -23.67960739 61.71640396 C-23.68750832 57.99608041 -23.70097355 54.27581316 -23.71585083 50.55551147 C-23.73820701 44.69249475 -23.74477775 38.82967186 -23.7385788 32.96661758 C-23.73838231 30.80382892 -23.74310224 28.64103356 -23.75302887 26.47826767 C-23.76531554 23.52118729 -23.7588347 20.56473588 -23.74731445 17.60766602 C-23.75496354 16.74459682 -23.76261263 15.88152761 -23.77049351 14.9923048 C-23.71740242 8.97116669 -22.42982124 5.7491739 -18.375 1.1875 C-13.3938811 -3.17097904 -5.68990512 -2.63421533 0 0 Z " fill="#090909" transform="translate(350.375,123.5625)"/>
<path d="M0 0 C1.7325 -0.00386719 1.7325 -0.00386719 3.5 -0.0078125 C7 0.125 7 0.125 14 1.125 C14 15.975 14 30.825 14 46.125 C21.50451254 46.13912302 21.50451254 46.13912302 23.25390625 43.53125 C23.50011719 42.7371875 23.74632812 41.943125 24 41.125 C26.52261037 36.29045881 29.07663079 31.47318699 31.64550781 26.66308594 C32.57699166 24.91764504 33.50588452 23.17081972 34.43261719 21.42285156 C35.88291787 18.69327167 37.34621164 15.97101898 38.8125 13.25 C39.26810303 12.38826172 39.72370605 11.52652344 40.19311523 10.63867188 C40.63083252 9.83236328 41.0685498 9.02605469 41.51953125 8.1953125 C41.90214111 7.48133301 42.28475098 6.76735352 42.67895508 6.03173828 C44.58389011 3.28223864 46.77088823 1.55880415 49.92578125 0.4453125 C57.21574017 -0.68044387 64.73785212 0.17258716 72 1.125 C72.89142122 3.5766688 73.13087911 4.7629745 72.23071289 7.25292969 C71.8155542 8.00993164 71.40039551 8.76693359 70.97265625 9.546875 C70.51415283 10.39975098 70.05564941 11.25262695 69.58325195 12.13134766 C68.83047974 13.48945557 68.83047974 13.48945557 68.0625 14.875 C67.0348963 16.77259244 66.00886804 18.67103883 64.984375 20.5703125 C64.47455078 21.51036133 63.96472656 22.45041016 63.43945312 23.41894531 C61.80190027 26.49741136 60.27521091 29.61739592 58.76733398 32.76074219 C55.20380607 40.1848346 51.15121322 46.65858341 46 53.125 C47.88292699 55.20479783 47.88292699 55.20479783 50.25 56.3125 C60.42759115 63.0204578 62.99952934 74.80678791 66.5 85.81640625 C66.99909856 87.37789258 67.49909133 88.93909339 68 90.5 C68.24242432 91.25982178 68.48484863 92.01964355 68.73461914 92.80249023 C70.48828841 98.09830457 72.73378834 102.61736566 75.99609375 107.1796875 C77 109.125 77 109.125 76.80859375 111.24609375 C75.57358134 114.11585689 73.52901075 115.37877829 71 117.125 C67.34626672 118.34291109 63.93254014 118.38604675 60.125 118.4375 C59.06345703 118.48100586 59.06345703 118.48100586 57.98046875 118.52539062 C54.38103941 118.56895914 52.23651446 118.27047259 49.1484375 116.37109375 C42.86702203 109.8041594 40.82109406 100.66906329 38.24609375 92.1796875 C35.35516749 81.24397312 35.35516749 81.24397312 29.4375 71.875 C24.85216158 69.2678776 24.85216158 69.2678776 14 69.125 C14 84.965 14 100.805 14 117.125 C11.41276011 118.41861994 9.51886997 118.25448949 6.625 118.2578125 C5.55765625 118.25910156 4.4903125 118.26039063 3.390625 118.26171875 C2.27171875 118.25785156 1.1528125 118.25398438 0 118.25 C-1.11890625 118.25386719 -2.2378125 118.25773437 -3.390625 118.26171875 C-4.45796875 118.26042969 -5.5253125 118.25914062 -6.625 118.2578125 C-7.60726562 118.25668457 -8.58953125 118.25555664 -9.6015625 118.25439453 C-12 118.125 -12 118.125 -14 117.125 C-14 78.845 -14 40.565 -14 1.125 C-9.09359988 0.4240857 -4.88132563 -0.01089582 0 0 Z " fill="#625CEE" transform="translate(49,116.875)"/>
<path d="M0 0 C1.31355469 -0.01417969 2.62710938 -0.02835937 3.98046875 -0.04296875 C7.64229223 0.17726324 10.41711599 0.85152464 13.8125 2.1875 C13.8125 2.8475 13.8125 3.5075 13.8125 4.1875 C14.43125 4.414375 15.05 4.64125 15.6875 4.875 C18.53456655 6.63348228 18.82538417 8.00988072 19.8125 11.1875 C20.07078552 14.38568115 20.07078552 14.38568115 20.08374023 18.03808594 C20.08896698 18.70710938 20.09419373 19.37613281 20.09957886 20.06542969 C20.10978378 21.51185525 20.11559312 22.95831717 20.11746025 24.40477753 C20.121141 26.70135902 20.13791563 28.9975152 20.15821838 31.29400635 C20.21345428 37.8212489 20.24422561 44.34855419 20.26879883 50.87597656 C20.28476089 54.87598927 20.3150719 58.87570106 20.35356331 62.87555695 C20.36514021 64.39201896 20.37114301 65.908535 20.37124443 67.4250412 C20.21583621 81.23629381 20.21583621 81.23629381 26.3125 93.1875 C31.65491135 97.46142908 38.27979814 96.74261875 44.8125 96.1875 C49.89811721 94.04618749 51.67627592 91.16478304 53.97156525 86.40646362 C55.33102411 82.81927716 55.38398557 79.46157378 55.35839844 75.66015625 C55.36873611 74.84944168 55.37907379 74.03872711 55.38972473 73.20344543 C55.4189723 70.55208986 55.42064803 67.90150365 55.421875 65.25 C55.43686889 63.40053874 55.45359856 61.5510908 55.47198486 59.70166016 C55.51553499 54.85527912 55.53563005 50.00907869 55.55072021 45.16253662 C55.5703359 40.20851009 55.61230084 35.25467733 55.65234375 30.30078125 C55.72751213 20.59641412 55.77788446 10.89209063 55.8125 1.1875 C60.53330497 0.48008175 65.03584199 0.05183782 69.8125 0.0625 C70.9675 0.05992188 72.1225 0.05734375 73.3125 0.0546875 C76.87505879 0.18987388 80.28945076 0.65956688 83.8125 1.1875 C83.8823446 11.52402524 83.93548497 21.86049332 83.96793652 32.19720745 C83.98352015 36.99817493 84.00462322 41.79897966 84.03881836 46.59985352 C84.07167453 51.24236946 84.08940776 55.88472994 84.09713173 60.52735329 C84.10262851 62.28897355 84.11336081 64.05058636 84.12969017 65.81213951 C84.25136623 79.49585463 83.78160986 92.48718841 75.8125 104.1875 C75.42835938 104.80109375 75.04421875 105.4146875 74.6484375 106.046875 C69.75200346 112.83579582 60.57966689 117.18839317 52.55078125 118.87109375 C47.67135757 119.28408572 42.83256073 119.37167906 37.9375 119.375 C36.99519531 119.38724609 36.05289063 119.39949219 35.08203125 119.41210938 C23.19016414 119.4367813 12.53838766 116.84862279 3.5625 108.625 C-8.74026408 95.35096507 -8.4949098 78.74208695 -8.41796875 61.76953125 C-8.41677425 60.01787856 -8.41632436 58.26622522 -8.4165802 56.51457214 C-8.41502705 52.87124536 -8.4068205 49.22801848 -8.39331055 45.5847168 C-8.37618278 40.90606719 -8.37250078 36.22752546 -8.37325573 31.54884815 C-8.37298473 27.94505273 -8.3675171 24.34128106 -8.36025429 20.73749352 C-8.35706723 19.01063911 -8.35510013 17.28378201 -8.35436058 15.55692482 C-8.35220526 13.15875198 -8.34348289 10.76069663 -8.33276367 8.36254883 C-8.33321686 7.6462883 -8.33367004 6.93002777 -8.33413696 6.19206238 C-8.28847032 -0.75433526 -6.2870637 0.0059593 0 0 Z " fill="#0B0B0B" transform="translate(140.1875,116.8125)"/>
<path d="M0 0 C1.18916016 0.88945313 1.18916016 0.88945313 2.40234375 1.796875 C1.542122 9.73167905 -0.34858716 15.66345188 -5.59765625 21.796875 C-6.25765625 22.126875 -6.91765625 22.456875 -7.59765625 22.796875 C-9.35459081 22.11445408 -11.07911723 21.34809171 -12.78515625 20.546875 C-23.43402905 15.96478791 -35.4139487 12.55749076 -46.59765625 16.984375 C-48.82579216 18.71267114 -48.82579216 18.71267114 -49.59765625 21.671875 C-49.59765625 25.4474111 -48.81515325 26.77861519 -46.59765625 29.796875 C-44.20117907 31.47446023 -44.20117907 31.47446023 -41.34765625 32.734375 C-40.27902344 33.24097656 -39.21039063 33.74757812 -38.109375 34.26953125 C-35.11504741 35.57184726 -32.10359618 36.78207963 -29.05371094 37.94702148 C-15.93326124 42.96953504 -3.44824854 49.19724517 2.77734375 62.484375 C6.25139109 71.18433971 6.31038135 79.90615587 3.40234375 88.796875 C-1.21440198 99.527202 -7.81177141 104.86493212 -18.31640625 109.6328125 C-34.6653192 115.432784 -56.47247996 112.99716943 -72.16796875 106.265625 C-79.81854666 102.57598459 -79.81854666 102.57598459 -82.59765625 99.796875 C-82.48806353 92.55005649 -79.39282648 86.11974338 -74.59765625 80.796875 C-72.73828125 79.3828125 -72.73828125 79.3828125 -70.59765625 78.796875 C-68.07421875 79.7734375 -68.07421875 79.7734375 -65.22265625 81.421875 C-55.47607406 86.59789185 -44.76231439 90.33874959 -33.59765625 88.796875 C-30.26802738 87.62858417 -28.4286245 86.77235947 -26.16015625 84.109375 C-25.26679114 80.43665177 -25.23141908 77.30049538 -26.59765625 73.796875 C-31.71370206 68.40565497 -38.60541602 65.90976523 -45.41015625 63.359375 C-57.67937708 58.53856278 -70.33531327 53.01881371 -77.03515625 40.921875 C-80.1896838 32.97410429 -80.22572782 21.67627394 -77.03515625 13.734375 C-71.12318817 2.93406582 -62.24855957 -3.74346812 -50.59765625 -7.203125 C-35.06088455 -11.22917541 -13.51568904 -8.95518047 0 0 Z " fill="#625BEE" transform="translate(315.59765625,124.203125)"/>
<path d="M0 0 C1.31238144 0.00222061 2.62476288 0.00444122 3.97691345 0.00672913 C4.6988237 0.0065831 5.42073395 0.00643707 6.16452026 0.00628662 C8.56156879 0.00698583 10.95854054 0.01477857 13.35557556 0.02259827 C15.0132442 0.02446242 16.67091338 0.02588633 18.32858276 0.02688599 C22.69996145 0.03071139 27.07130712 0.04054186 31.44267273 0.05158997 C35.89996392 0.0618036 40.35726043 0.0663835 44.81455994 0.07142639 C53.56652824 0.08216412 62.31846968 0.0992408 71.07041931 0.12025452 C71.29879395 1.88861491 71.50172866 3.66025983 71.69541931 5.43275452 C71.81143494 6.41888733 71.92745056 7.40502014 72.04698181 8.42103577 C72.07041931 12.12025452 72.07041931 12.12025452 70.07041931 23.12025452 C54.56041931 23.12025452 39.05041931 23.12025452 23.07041931 23.12025452 C23.40041931 23.78025452 23.73041931 24.44025452 24.07041931 25.12025452 C24.15468025 26.78771511 24.17767074 28.45850639 24.16807556 30.12806702 C24.16485291 31.11419983 24.16163025 32.10033264 24.15830994 33.11634827 C24.14993103 34.14888733 24.14155212 35.18142639 24.13291931 36.24525452 C24.12840759 37.28552795 24.12389587 38.32580139 24.11924744 39.39759827 C24.10743883 41.97187413 24.09097006 44.54603598 24.07041931 47.12025452 C25.06041931 46.62525452 25.06041931 46.62525452 26.07041931 46.12025452 C28.69669064 46.03358197 31.29604414 46.00465316 33.92198181 46.02259827 C34.69601349 46.02401321 35.47004517 46.02542816 36.26753235 46.02688599 C38.74353373 46.03249048 41.21944519 46.04504368 43.69541931 46.05775452 C45.37250134 46.06276894 47.04958478 46.06733195 48.72666931 46.07142639 C52.84128737 46.08246137 56.95583809 46.09972898 61.07041931 46.12025452 C62.35368053 49.97003817 62.21549911 53.61098792 62.19541931 57.62025452 C62.1992865 58.39240295 62.20315369 59.16455139 62.20713806 59.96009827 C62.20140982 63.26529188 62.12249432 65.9640295 61.07041931 69.12025452 C48.86041931 69.12025452 36.65041931 69.12025452 24.07041931 69.12025452 C24.10996498 76.27043894 24.10996498 76.27043894 24.1605072 83.42054749 C24.16300476 84.30887268 24.16550232 85.19719788 24.16807556 86.11244202 C24.17593079 87.4792511 24.17593079 87.4792511 24.1839447 88.87367249 C24.07041931 91.12025452 24.07041931 91.12025452 23.07041931 93.12025452 C40.23041931 93.12025452 57.39041931 93.12025452 75.07041931 93.12025452 C75.07041931 106.53960936 75.07041931 106.53960936 70.13291931 112.43275452 C66.25330775 115.60698216 63.3969263 116.3727194 58.38731384 116.41078186 C57.2457785 116.42354156 56.10424316 116.43630127 54.92811584 116.44944763 C53.69890411 116.45167328 52.46969238 116.45389893 51.20323181 116.45619202 C49.93575104 116.46284882 48.66827026 116.46950562 47.36238098 116.47636414 C44.68077045 116.4864912 41.99956534 116.49204626 39.31797791 116.49085999 C35.8925567 116.49065691 32.46796627 116.51795045 29.04274178 116.5524044 C25.76293668 116.58007602 22.48313776 116.57882408 19.20323181 116.58119202 C17.97806854 116.59556305 16.75290527 116.60993408 15.49061584 116.6247406 C9.07219123 116.59033315 4.90335918 116.53938356 0.07041931 112.12025452 C-3.39561503 108.2956649 -4.05403725 104.79332816 -4.05656433 99.73568726 C-4.05938416 98.86497589 -4.06220398 97.99426453 -4.06510925 97.09716797 C-4.06308502 96.14999405 -4.06106079 95.20282013 -4.05897522 94.22694397 C-4.06072754 93.22334839 -4.06247986 92.21975281 -4.06428528 91.18574524 C-4.06868699 87.8683245 -4.06577235 84.55095705 -4.06239319 81.23353577 C-4.06306655 78.93236277 -4.06403685 76.63118984 -4.06529236 74.33001709 C-4.06676692 69.5090314 -4.06462191 64.68806423 -4.05995178 59.86708069 C-4.05424504 53.67261696 -4.05754101 47.47819647 -4.06352425 41.28373432 C-4.06712818 36.53386099 -4.06599222 31.78399801 -4.06339645 27.03412437 C-4.06272722 24.74905072 -4.0635555 22.46397615 -4.06587601 20.17890358 C-4.06840081 16.99437066 -4.06456482 13.80990904 -4.05897522 10.62538147 C-4.06099945 9.67213486 -4.06302368 8.71888824 -4.06510925 7.73675537 C-4.06228943 6.87450348 -4.0594696 6.01225159 -4.05656433 5.12387085 C-4.05618731 4.3704305 -4.05581028 3.61699015 -4.05542183 2.84071827 C-3.83390906 -0.18774039 -3.06323417 0.12574077 0 0 Z " fill="#0A0A0A" transform="translate(145.92958068847656,242.87974548339844)"/>
<path d="M0 0 C6.20476836 4.9290216 9.30181076 11.04605729 11.77734375 18.47265625 C11.9235389 20.7611727 11.99825711 23.05465941 12.02734375 25.34765625 C12.053125 26.56195313 12.07890625 27.77625 12.10546875 29.02734375 C11.64085469 33.90579137 9.87076208 36.37923792 6.46484375 39.78515625 C1.41180125 42.96575153 -5.52204433 41.90462808 -11.22265625 41.47265625 C-12.70765625 40.97765625 -12.70765625 40.97765625 -14.22265625 40.47265625 C-14.38701172 39.07853516 -14.38701172 39.07853516 -14.5546875 37.65625 C-15.67504363 26.30475668 -15.67504363 26.30475668 -21.72265625 17.09765625 C-26.68944108 13.86924611 -31.4848612 14.02439101 -37.22265625 14.47265625 C-40.90753726 15.44602105 -42.53744389 16.42479667 -44.625 19.6171875 C-52.82198316 35.08453833 -53.37276833 54.79197705 -48.33984375 71.3828125 C-46.62437335 75.96865661 -45.00659972 79.22927613 -41.22265625 82.47265625 C-41.22265625 83.13265625 -41.22265625 83.79265625 -41.22265625 84.47265625 C-26.08937594 88.36867097 -15.01298383 84.02204714 -1.76953125 76.390625 C-1.00382812 75.93623047 -1.00382812 75.93623047 -0.22265625 75.47265625 C5.19595938 79.45463604 9.60463842 83.96585643 11.77734375 90.47265625 C11.65124604 93.74615273 11.15890948 95.06639629 8.90625 97.46484375 C3.0708575 101.74590796 -2.68905752 104.76826503 -9.41015625 107.41015625 C-10.15773193 107.7045459 -10.90530762 107.99893555 -11.67553711 108.30224609 C-24.5519471 113.08495321 -41.12519458 113.70087592 -53.890625 108.35546875 C-66.40756798 102.24374763 -73.22888884 92.02098651 -77.77734375 79.21875 C-79.25134482 74.70118377 -80.01221771 70.3181566 -80.47265625 65.59765625 C-80.55418945 64.78756104 -80.63572266 63.97746582 -80.71972656 63.14282227 C-82.42524991 43.65139522 -80.60913649 22.99947294 -68.34765625 6.97265625 C-50.88466878 -13.27909728 -21.72564933 -14.92922476 0 0 Z " fill="#615AEF" transform="translate(307.22265625,249.52734375)"/>
<path d="M0 0 C27.72 0 55.44 0 84 0 C85.88042813 6.58149846 86.54745686 10.51385101 85 17 C83.17632512 19.88258287 82.03064418 21.48467791 79 23 C71.41 23 63.82 23 56 23 C56 53.69 56 84.38 56 116 C52.78837845 116.80290539 50.59630601 117.12822188 47.375 117.1328125 C46.06789063 117.13474609 46.06789063 117.13474609 44.734375 117.13671875 C43.83203125 117.13285156 42.9296875 117.12898438 42 117.125 C41.09765625 117.12886719 40.1953125 117.13273437 39.265625 117.13671875 C38.39421875 117.13542969 37.5228125 117.13414062 36.625 117.1328125 C35.83351562 117.13168457 35.04203125 117.13055664 34.2265625 117.12939453 C32 117 32 117 28 116 C28 85.31 28 54.62 28 23 C18.76 23 9.52 23 0 23 C-1.13818182 15.03272727 -1.13818182 15.03272727 -1.125 11.5 C-1.12886719 10.46359375 -1.12886719 10.46359375 -1.1328125 9.40625 C-0.95876821 6.25297691 -0.44661891 3.12633238 0 0 Z " fill="#635DEE" transform="translate(33,243)"/>
<path d="M0 0 C0.99 0.495 0.99 0.495 2 1 C2.33 2.65 2.66 4.3 3 6 C15.87 6.495 15.87 6.495 29 7 C31.23050679 24.58322889 31.44131311 42.04353537 31.48046875 59.74047852 C31.49157271 63.99956776 31.54003617 68.25742133 31.59641266 72.51611805 C31.63368541 75.82850297 31.64407607 79.14058435 31.6471405 82.45316124 C31.65315735 84.02441088 31.66909151 85.59565751 31.69551086 87.16669655 C31.90982808 100.84919833 31.90982808 100.84919833 28.20898438 105.38549805 C24.59625049 108.82671721 21.0974176 110.2892644 16.125 110.3125 C11.69806638 110.20182666 8.68444897 109.63174927 5 107 C1.33256764 102.3413697 -0.12782697 98.6824203 -0.12025452 92.83648682 C-0.12162918 92.01481522 -0.12300385 91.19314362 -0.12442017 90.34657288 C-0.12082489 89.45393234 -0.11722961 88.56129181 -0.11352539 87.64160156 C-0.11367142 86.69492111 -0.11381744 85.74824066 -0.1139679 84.77287292 C-0.11327153 81.6454336 -0.10549198 78.51805392 -0.09765625 75.390625 C-0.09579109 73.22157829 -0.09436765 71.05253117 -0.09336853 68.88348389 C-0.08955106 63.17558631 -0.07972731 57.46771418 -0.06866455 51.75982666 C-0.0584339 45.93494003 -0.05386736 40.11004928 -0.04882812 34.28515625 C-0.03810438 22.85675965 -0.02103717 11.42838194 0 0 Z " fill="#070707" transform="translate(329,246)"/>
<path d="M0 0 C0.33 0 0.66 0 1 0 C1 6.27 1 12.54 1 19 C1.99 18.34 2.98 17.68 4 17 C6.14506531 16.75949097 6.14506531 16.75949097 8.6550293 16.77294922 C10.06615242 16.77317581 10.06615242 16.77317581 11.50578308 16.77340698 C12.51836685 16.78372955 13.53095062 16.79405212 14.57421875 16.8046875 C16.13267265 16.80893234 16.13267265 16.80893234 17.72261047 16.81326294 C21.04435697 16.82446718 24.36583485 16.84957236 27.6875 16.875 C29.93814715 16.88502948 32.18879852 16.89415538 34.43945312 16.90234375 C39.95972722 16.9244073 45.47984442 16.95788729 51 17 C51.33 16.34 51.66 15.68 52 15 C52 15.66 52 16.32 52 17 C54.97 17 57.94 17 61 17 C61.33 16.34 61.66 15.68 62 15 C62 15.66 62 16.32 62 17 C75.86 17 89.72 17 104 17 C104 35.81 104 54.62 104 74 C103.67 74 103.34 74 103 74 C103 59.15 103 44.3 103 29 C79.24 29 55.48 29 31 29 C31 33.29 31 37.58 31 42 C30.67 42 30.34 42 30 42 C30 37.71 30 33.42 30 29 C27.43605469 29.01740234 27.43605469 29.01740234 24.8203125 29.03515625 C22.58854275 29.04453343 20.35677183 29.05363371 18.125 29.0625 C16.43310547 29.07506836 16.43310547 29.07506836 14.70703125 29.08789062 C13.63066406 29.09111328 12.55429687 29.09433594 11.4453125 29.09765625 C10.45031738 29.10289307 9.45532227 29.10812988 8.43017578 29.11352539 C6 29 6 29 4 28 C4 26.68 4 25.36 4 24 C3.34 23.67 2.68 23.34 2 23 C1.67 22.67 1.34 22.34 1 22 C1 37.84 1 53.68 1 70 C0.67 70 0.34 70 0 70 C-0.17090883 63.08493201 -0.3302356 56.16966084 -0.48217773 49.25415039 C-0.53496117 46.91034146 -0.59022465 44.56658681 -0.64819336 42.22290039 C-0.99585534 28.08968491 -1.02623192 14.10507084 0 0 Z " fill="#5E57EE" transform="translate(328,224)"/>
<path d="M0 0 C0.83272934 0.00222061 1.66545868 0.00444122 2.52342224 0.00672913 C3.46432205 0.00680466 4.40522186 0.00688019 5.37463379 0.00695801 C6.39754013 0.01211929 7.42044647 0.01728058 8.47434998 0.02259827 C9.51614914 0.02401321 10.5579483 0.02542816 11.63131714 0.02688599 C14.97355467 0.03250372 18.31572629 0.04505922 21.65794373 0.05775452 C23.91770839 0.06276723 26.17747409 0.06733053 28.4372406 0.07142639 C33.98999763 0.08247891 39.54271597 0.09923428 45.09544373 0.12025452 C45.09544373 0.45025452 45.09544373 0.78025452 45.09544373 1.12025452 C43.11544373 1.12025452 41.13544373 1.12025452 39.09544373 1.12025452 C39.09544373 2.11025452 39.09544373 3.10025452 39.09544373 4.12025452 C36.62044373 3.62525452 36.62044373 3.62525452 34.09544373 3.12025452 C34.09544373 3.78025452 34.09544373 4.44025452 34.09544373 5.12025452 C33.43544373 5.45025452 32.77544373 5.78025452 32.09544373 6.12025452 C31.76544373 7.11025452 31.43544373 8.10025452 31.09544373 9.12025452 C32.08544373 8.79025452 33.07544373 8.46025452 34.09544373 8.12025452 C34.09544373 8.78025452 34.09544373 9.44025452 34.09544373 10.12025452 C30.79544373 10.12025452 27.49544373 10.12025452 24.09544373 10.12025452 C24.09544373 14.74025452 24.09544373 19.36025452 24.09544373 24.12025452 C23.76544373 24.12025452 23.43544373 24.12025452 23.09544373 24.12025452 C23.09544373 19.83025452 23.09544373 15.54025452 23.09544373 11.12025452 C15.17544373 11.12025452 7.25544373 11.12025452 -0.90455627 11.12025452 C-1.56455627 7.82025452 -2.22455627 4.52025452 -2.90455627 1.12025452 C-1.90455627 0.12025452 -1.90455627 0.12025452 0 0 Z " fill="#5C55E1" transform="translate(334.90455627441406,241.87974548339844)"/>
<path d="M0 0 C0.33 0 0.66 0 1 0 C1 6.27 1 12.54 1 19 C1.99 18.34 2.98 17.68 4 17 C6.14506531 16.75949097 6.14506531 16.75949097 8.6550293 16.77294922 C10.06615242 16.77317581 10.06615242 16.77317581 11.50578308 16.77340698 C12.51836685 16.78372955 13.53095062 16.79405212 14.57421875 16.8046875 C16.13267265 16.80893234 16.13267265 16.80893234 17.72261047 16.81326294 C21.04435697 16.82446718 24.36583485 16.84957236 27.6875 16.875 C29.93814715 16.88502948 32.18879852 16.89415538 34.43945312 16.90234375 C39.95972722 16.9244073 45.47984442 16.95788729 51 17 C51.33 16.34 51.66 15.68 52 15 C52 15.66 52 16.32 52 17 C54.97 17 57.94 17 61 17 C61.33 16.34 61.66 15.68 62 15 C62 15.66 62 16.32 62 17 C75.86 17 89.72 17 104 17 C104 35.81 104 54.62 104 74 C103.67 74 103.34 74 103 74 C103 59.15 103 44.3 103 29 C97.33070313 29.03480469 97.33070313 29.03480469 91.546875 29.0703125 C87.88981461 29.08590615 84.23275792 29.09805255 80.57568359 29.10986328 C78.03237248 29.11992616 75.48907295 29.13357774 72.94580078 29.15087891 C69.29196312 29.17511427 65.63827832 29.18648027 61.984375 29.1953125 C60.84570984 29.20563507 59.70704468 29.21595764 58.53387451 29.22659302 C56.94267792 29.22681961 56.94267792 29.22681961 55.31933594 29.22705078 C53.92035065 29.23371262 53.92035065 29.23371262 52.49310303 29.24050903 C49.87717876 28.98815147 48.24603507 28.32780042 46 27 C52.49134377 26.00003677 58.72406685 25.94534034 65.28125 26.12109375 C66.33534058 26.14470474 67.38943115 26.16831573 68.47546387 26.19264221 C71.81713124 26.26875122 75.15853533 26.35300043 78.5 26.4375 C80.77602911 26.49077359 83.05207078 26.54351356 85.328125 26.59570312 C90.88558099 26.72429435 96.44281557 26.86018266 102 27 C102 24.03 102 21.06 102 18 C53.985 18.495 53.985 18.495 5 19 C5.33 21.97 5.66 24.94 6 28 C5.34 28 4.68 28 4 28 C4 26.68 4 25.36 4 24 C3.34 23.67 2.68 23.34 2 23 C1.67 22.67 1.34 22.34 1 22 C1 37.84 1 53.68 1 70 C0.67 70 0.34 70 0 70 C-0.17090883 63.08493201 -0.3302356 56.16966084 -0.48217773 49.25415039 C-0.53496117 46.91034146 -0.59022465 44.56658681 -0.64819336 42.22290039 C-0.99585534 28.08968491 -1.02623192 14.10507084 0 0 Z " fill="#7B78B1" transform="translate(328,224)"/>
<path d="M0 0 C0.33 0 0.66 0 1 0 C1 18.81 1 37.62 1 57 C0.67 57 0.34 57 0 57 C0 42.15 0 27.3 0 12 C-5.66929687 12.03480469 -5.66929687 12.03480469 -11.453125 12.0703125 C-15.11018539 12.08590615 -18.76724208 12.09805255 -22.42431641 12.10986328 C-24.96762752 12.11992616 -27.51092705 12.13357774 -30.05419922 12.15087891 C-33.70803688 12.17511427 -37.36172168 12.18648027 -41.015625 12.1953125 C-42.15429016 12.20563507 -43.29295532 12.21595764 -44.46612549 12.22659302 C-45.52692322 12.22674408 -46.58772095 12.22689514 -47.68066406 12.22705078 C-49.07964935 12.23371262 -49.07964935 12.23371262 -50.50689697 12.24050903 C-53.12282124 11.98815147 -54.75396493 11.32780042 -57 10 C-50.50865623 9.00003677 -44.27593315 8.94534034 -37.71875 9.12109375 C-36.66465942 9.14470474 -35.61056885 9.16831573 -34.52453613 9.19264221 C-31.18286876 9.26875122 -27.84146467 9.35300043 -24.5 9.4375 C-22.22397089 9.49077359 -19.94792922 9.54351356 -17.671875 9.59570312 C-12.11441901 9.72429435 -6.55718443 9.86018266 -1 10 C-0.67 6.7 -0.34 3.4 0 0 Z " fill="#7975BE" transform="translate(431,241)"/>
<path d="M0 0 C0 0.66 0 1.32 0 2 C11.55 2.33 23.1 2.66 35 3 C35 3.66 35 4.32 35 5 C18.5 5 2 5 -15 5 C-15 4.34 -15 3.68 -15 3 C-14.34 3 -13.68 3 -13 3 C-13 2.34 -13 1.68 -13 1 C-11.20994059 0.63779734 -9.41787943 0.28547531 -7.625 -0.0625 C-6.12839844 -0.35833984 -6.12839844 -0.35833984 -4.6015625 -0.66015625 C-2 -1 -2 -1 0 0 Z " fill="#040327" transform="translate(396,236)"/>
<path d="M0 0 C27.72 0 55.44 0 84 0 C85.16497462 13.97969543 85.16497462 13.97969543 82 19 C79.8125 20.4375 79.8125 20.4375 78 21 C78 20.01 78 19.02 78 18 C78.99 18 79.98 18 81 18 C82.39223227 11.88867523 82.39223227 11.88867523 82 1 C55.27 1 28.54 1 1 1 C0.67 1.66 0.34 2.32 0 3 C0 2.01 0 1.02 0 0 Z " fill="#615AD5" transform="translate(34,244)"/>
<path d="M0 0 C3.77948596 1.48088888 7.3850182 3.15047443 11 5 C11 5.33 11 5.66 11 6 C6.72656908 6.36629408 4.51187196 5.40814077 1 3 C1.20625 3.763125 1.4125 4.52625 1.625 5.3125 C2 8 2 8 0 11 C-0.99 10.67 -1.98 10.34 -3 10 C-3.99 10.495 -3.99 10.495 -5 11 C-5.72870472 13.31470912 -6.39239518 15.6505947 -7 18 C-7.33 18.99 -7.66 19.98 -8 21 C-6.68 21.33 -5.36 21.66 -4 22 C-4 22.66 -4 23.32 -4 24 C-6.4375 23.25 -6.4375 23.25 -9 22 C-10.5625735 18.07245038 -9.52389631 15.29318346 -8.16796875 11.4609375 C-6.11922741 7.14419152 -3.10613112 3.59970812 0 0 Z " fill="#6964E4" transform="translate(243,203)"/>
<path d="M0 0 C0.66 0.33 1.32 0.66 2 1 C1.67 1.66 1.34 2.32 1 3 C1.99 3 2.98 3 4 3 C2.72686604 6.81940188 1.35211493 7.81383809 -2 10 C-4.32275177 10.40047444 -6.65739357 10.7397104 -9 11 C-12.0109362 13.0072908 -12.63016497 13.83884224 -14 17 C-14.66 17 -15.32 17 -16 17 C-16 17.66 -16 18.32 -16 19 C-16.66 19 -17.32 19 -18 19 C-15.48239651 10.04852092 -7.58488308 4.54061028 0 0 Z " fill="#6B64EC" transform="translate(253,245)"/>
<path d="M0 0 C0.33 0 0.66 0 1 0 C1 14.52 1 29.04 1 44 C5.455 43.505 5.455 43.505 10 43 C10.66 41.68 11.32 40.36 12 39 C12.66 38.34 13.32 37.68 14 37 C13.66916395 39.97752446 13.12584648 41.81374721 11.4375 44.3125 C7.83131614 46.80908883 5.3309514 46.35499602 1 46 C0 45 0 45 -0.12025452 43.17137146 C-0.11803391 42.37417191 -0.11581329 41.57697235 -0.11352539 40.75561523 C-0.11344986 39.85475693 -0.11337433 38.95389862 -0.11329651 38.02574158 C-0.10813522 37.04658279 -0.10297394 36.06742401 -0.09765625 35.05859375 C-0.0962413 34.06118668 -0.09482635 33.0637796 -0.09336853 32.03614807 C-0.08775114 28.83656876 -0.07519571 25.63705831 -0.0625 22.4375 C-0.05748724 20.27408955 -0.05292395 18.11067801 -0.04882812 15.94726562 C-0.03777607 10.63148675 -0.02102104 5.31574829 0 0 Z " fill="#635BD7" transform="translate(61,119)"/>
<path d="M0 0 C2.97 0 5.94 0 9 0 C-1.61878287 7.07918858 -13.78334332 6.13343436 -26 6 C-26.33 5.34 -26.66 4.68 -27 4 C-21.06 4 -15.12 4 -9 4 C-9 3.34 -9 2.68 -9 2 C-6.03 2 -3.06 2 0 2 C0 1.34 0 0.68 0 0 Z " fill="#8B86E4" transform="translate(291,355)"/>
<path d="M0 0 C1.64204465 2.46306697 2.54844776 4.21828633 3.5078125 6.94140625 C3.90419922 8.06385742 3.90419922 8.06385742 4.30859375 9.20898438 C4.57800781 9.98564453 4.84742187 10.76230469 5.125 11.5625 C5.40214844 12.34302734 5.67929688 13.12355469 5.96484375 13.92773438 C8 19.73745382 8 19.73745382 8 22 C6.35 22.33 4.7 22.66 3 23 C3.33 22.01 3.66 21.02 4 20 C3.01 20 2.02 20 1 20 C0.4375 18.0625 0.4375 18.0625 0 16 C0.33 15.67 0.66 15.34 1 15 C1.16666667 12 1.16666667 12 1 9 C0.67 8.67 0.34 8.34 0 8 C-0.14115161 5.32941149 -0.04247107 2.67567762 0 0 Z " fill="#756CEA" transform="translate(113,198)"/>
<path d="M0 0 C0.33 0 0.66 0 1 0 C1.02483806 4.3050091 1.04292512 8.60997951 1.05493164 12.91503906 C1.05994045 14.37761157 1.06674938 15.84017911 1.07543945 17.30273438 C1.08765698 19.41277291 1.09326295 21.52274487 1.09765625 23.6328125 C1.10289307 24.90012207 1.10812988 26.16743164 1.11352539 27.47314453 C1.00813747 30.747196 0.62450226 33.78889152 0 37 C-0.33 37 -0.66 37 -1 37 C-2.03624948 24.36895909 -1.81376023 12.54642404 0 0 Z " fill="#9089E3" transform="translate(228,279)"/>
<path d="M0 0 C0.99 0.33 1.98 0.66 3 1 C3.99 6.28 4.98 11.56 6 17 C12.93 17.495 12.93 17.495 20 18 C20 18.66 20 19.32 20 20 C17.72923158 20.02699725 15.45837179 20.04639453 13.1875 20.0625 C11.29064453 20.07990234 11.29064453 20.07990234 9.35546875 20.09765625 C6 20 6 20 3 19 C2.86722656 18.04738281 2.73445313 17.09476562 2.59765625 16.11328125 C2.42105469 14.85902344 2.24445313 13.60476563 2.0625 12.3125 C1.88847656 11.07113281 1.71445312 9.82976562 1.53515625 8.55078125 C1.10177103 5.67525452 0.60350718 2.84355187 0 0 Z " fill="#8E89E4" transform="translate(290,271)"/>
<path d="M0 0 C0.33 0.66 0.66 1.32 1 2 C3.04524321 2.59505999 5.09333957 2.95466781 7.1875 3.33984375 C7.785625 3.55769531 8.38375 3.77554687 9 4 C9.33 4.99 9.66 5.98 10 7 C9.38125 6.835 8.7625 6.67 8.125 6.5 C2.15889001 5.5454224 -4.12929877 5.43447967 -10 7 C-9.39816251 4.97954558 -8.72693904 2.97888961 -8 1 C-5.29120665 -0.35439668 -2.99066732 -0.06501451 0 0 Z " fill="#6B64E4" transform="translate(275,258)"/>
<path d="M0 0 C0.66 0 1.32 0 2 0 C2 0.66 2 1.32 2 2 C2.61875 2.28875 3.2375 2.5775 3.875 2.875 C6 4 6 4 8 6 C8 6.99 8 7.98 8 9 C9.32 8.67 10.64 8.34 12 8 C12.391875 8.804375 12.78375 9.60875 13.1875 10.4375 C14.76948191 13.23064738 14.76948191 13.23064738 17.6875 13.8125 C18.450625 13.874375 19.21375 13.93625 20 14 C20.33 15.32 20.66 16.64 21 18 C12.11167569 15.46047877 6.54887158 10.19101973 1 3 C0.67 2.01 0.34 1.02 0 0 Z " fill="#938EE7" transform="translate(235,340)"/>
<path d="M0 0 C1.5349172 2.93400101 2.7296868 5.89534934 3.875 9 C5.37735979 12.84061902 6.82531006 15.2788372 10 18 C10 18.66 10 19.32 10 20 C6.71023192 21.09658936 5.28696233 20.79953138 2 20 C2.33 17.69 2.66 15.38 3 13 C2.34 13 1.68 13 1 13 C-0.10228696 8.59085217 -0.07654536 4.51617599 0 0 Z " fill="#6761E6" transform="translate(256,314)"/>
<path d="M0 0 C4.48256467 4.15610338 5.87897479 8.65261512 6.1875 14.63671875 C6.1875 18.09629523 6.13109107 21.54308001 6 25 C5.34 25.33 4.68 25.66 4 26 C3.67 21.38 3.34 16.76 3 12 C2.67 12 2.34 12 2 12 C1.896875 10.88625 1.79375 9.7725 1.6875 8.625 C1.460625 7.42875 1.23375 6.2325 1 5 C0.01 4.34 -0.98 3.68 -2 3 C-1 1 -1 1 0 0 Z " fill="#7A75D9" transform="translate(313,257)"/>
<path d="M0 0 C1.40185547 0.00966797 1.40185547 0.00966797 2.83203125 0.01953125 C4.28416016 0.04466797 4.28416016 0.04466797 5.765625 0.0703125 C6.74917969 0.07933594 7.73273438 0.08835937 8.74609375 0.09765625 C11.16951907 0.12118465 13.59244722 0.15405882 16.015625 0.1953125 C16.015625 0.8553125 16.015625 1.5153125 16.015625 2.1953125 C14.74847656 2.25589844 13.48132813 2.31648438 12.17578125 2.37890625 C10.47655536 2.46339815 8.777337 2.54804169 7.078125 2.6328125 C5.83192383 2.69178711 5.83192383 2.69178711 4.56054688 2.75195312 C-0.98802514 3.03262019 -6.46809137 3.53291315 -11.984375 4.1953125 C-7.75340932 1.37466871 -5.13826199 -0.06266173 0 0 Z " fill="#7B74E1" transform="translate(274.984375,115.8046875)"/>
<path d="M0 0 C1.67739258 0.00966797 1.67739258 0.00966797 3.38867188 0.01953125 C5.13954102 0.04466797 5.13954102 0.04466797 6.92578125 0.0703125 C8.69405273 0.08384766 8.69405273 0.08384766 10.49804688 0.09765625 C13.41166151 0.12124827 16.32487017 0.1541671 19.23828125 0.1953125 C19.23828125 0.5253125 19.23828125 0.8553125 19.23828125 1.1953125 C11.31828125 1.5253125 3.39828125 1.8553125 -4.76171875 2.1953125 C-4.43171875 5.1653125 -4.10171875 8.1353125 -3.76171875 11.1953125 C-4.42171875 11.1953125 -5.08171875 11.1953125 -5.76171875 11.1953125 C-5.76171875 9.8753125 -5.76171875 8.5553125 -5.76171875 7.1953125 C-6.42171875 6.8653125 -7.08171875 6.5353125 -7.76171875 6.1953125 C-8.38671875 4.1328125 -8.38671875 4.1328125 -8.76171875 2.1953125 C-5.31537993 -0.10224672 -4.05103484 -0.04112726 0 0 Z " fill="#5D59C6" transform="translate(337.76171875,240.8046875)"/>
<path d="M0 0 C0 0.66 0 1.32 0 2 C0.66 2.66 1.32 3.32 2 4 C-3.08086796 4.84681133 -7.84828377 5.09038099 -13 5 C-13 4.34 -13 3.68 -13 3 C-12.34 3 -11.68 3 -11 3 C-11 2.34 -11 1.68 -11 1 C-7.32589215 -0.17571451 -3.83070817 -0.07366746 0 0 Z " fill="#292930" transform="translate(394,236)"/>
<path d="M0 0 C2.0625 1.75 2.0625 1.75 4 4 C4.0625 6 4.0625 6 3 8 C0.6875 10.3125 0.6875 10.3125 -2 12 C-4.3125 11.75 -4.3125 11.75 -6 11 C-4.9024777 8.00675737 -4.32317108 7.15389099 -1.375 5.75 C-0.59125 5.5025 0.1925 5.255 1 5 C0.67 3.35 0.34 1.7 0 0 Z " fill="#817AE6" transform="translate(122,222)"/>
<path d="M0 0 C0.8353125 1.175625 0.8353125 1.175625 1.6875 2.375 C4.07668565 5.08704858 5.60073413 5.96133543 9 7 C9 7.33 9 7.66 9 8 C2.37822074 7.69343615 -2.22125154 6.25711277 -8 3 C-8 2.67 -8 2.34 -8 2 C-5.36 2 -2.72 2 0 2 C0 1.34 0 0.68 0 0 Z " fill="#827BE3" transform="translate(247,225)"/>
<path d="M0 0 C1.2375 0.0825 2.475 0.165 3.75 0.25 C4.44609375 0.29640625 5.1421875 0.3428125 5.859375 0.390625 C8 1 8 1 12 5 C5.73 5 -0.54 5 -7 5 C-7 4.67 -7 4.34 -7 4 C-3.7 4 -0.4 4 3 4 C2.01 3.67 1.02 3.34 0 3 C0 2.01 0 1.02 0 0 Z " fill="#938EEF" transform="translate(366,248)"/>
<path d="M0 0 C0.99 0 1.98 0 3 0 C1.68830337 3.53969809 0.14001018 6.59937388 -1.9375 9.75 C-2.44152344 10.52859375 -2.94554688 11.3071875 -3.46484375 12.109375 C-5 14 -5 14 -8 15 C-7.67 13.68 -7.34 12.36 -7 11 C-6.34 11 -5.68 11 -5 11 C-5 10.34 -5 9.68 -5 9 C-5.66 9 -6.32 9 -7 9 C-7 8.34 -7 7.68 -7 7 C-5.35 7 -3.7 7 -2 7 C-1.855625 6.401875 -1.71125 5.80375 -1.5625 5.1875 C-1.1127561 3.43849596 -0.57107659 1.71322977 0 0 Z " fill="#8B85E5" transform="translate(100,157)"/>
<path d="M0 0 C1.134375 0.020625 2.26875 0.04125 3.4375 0.0625 C2.28164715 3.97461733 1.08215038 6.9370041 -1.5625 10.0625 C-2.5525 7.0925 -3.5425 4.1225 -4.5625 1.0625 C-3.5625 0.0625 -3.5625 0.0625 0 0 Z " fill="#756DEB" transform="translate(235.5625,329.9375)"/>
<path d="M0 0 C0.33 0 0.66 0 1 0 C2.77368593 13.01415336 2.77368593 13.01415336 -1 19 C-3.1875 20.4375 -3.1875 20.4375 -5 21 C-5 20.01 -5 19.02 -5 18 C-4.01 18 -3.02 18 -2 18 C-1.14980833 14.35347481 -0.91839078 11.0512223 -1 7.3125 C-1.11024643 2.22049287 -1.11024643 2.22049287 0 0 Z " fill="#968FE6" transform="translate(117,244)"/>
<path d="M0 0 C1.94218842 4.85547105 -0.43704872 9.31114616 -2 14 C-0.68 14.33 0.64 14.66 2 15 C2 15.66 2 16.32 2 17 C-0.4375 16.25 -0.4375 16.25 -3 15 C-4.36590653 11.72468487 -3.81312258 9.63416194 -2.625 6.375 C-2.34914062 5.59898437 -2.07328125 4.82296875 -1.7890625 4.0234375 C-1 2 -1 2 0 0 Z " fill="#8C87E4" transform="translate(237,210)"/>
<path d="M0 0 C0.66 0 1.32 0 2 0 C1.42655063 2.86724686 1.1385485 3.8614515 -1 6 C-1.71408334 7.98356483 -2.38617742 9.98315437 -3 12 C-3.66 12 -4.32 12 -5 12 C-5 12.66 -5 13.32 -5 14 C-5.99 14.33 -6.98 14.66 -8 15 C-6.25565047 10.08410586 -3.74513488 3.74513488 0 0 Z " fill="#8883E3" transform="translate(94,120)"/>
<path d="M0 0 C-0.1875 1.8125 -0.1875 1.8125 -1 4 C-2.65532623 5.01866229 -4.32260138 6.01810813 -6 7 C-7.32793606 9.06700655 -7.32793606 9.06700655 -8 11 C-8.66 11 -9.32 11 -10 11 C-10 11.66 -10 12.32 -10 13 C-10.66 13 -11.32 13 -12 13 C-10.48665656 7.61922331 -5.99032955 0 0 0 Z " fill="#8F87E4" transform="translate(247,251)"/>
<path d="M0 0 C0.66 0 1.32 0 2 0 C1.47731534 2.76276177 0.89130413 5.3260876 0 8 C-0.66 8 -1.32 8 -2 8 C-2.33 8.99 -2.66 9.98 -3 11 C-4.98 10.34 -6.96 9.68 -9 9 C-7.3125 7.875 -5.625 6.75 -3.9375 5.625 C-1.87020873 3.8911428 -1.02182813 2.46941799 0 0 Z " fill="#7B73E9" transform="translate(291,205)"/>
<path d="M0 0 C1.1700097 3.91736581 0.69584017 6.97959015 0 11 C-1.65 11.66 -3.3 12.32 -5 13 C-5 9.51038791 -4.09620626 7.88519705 -2.5 4.8125 C-2.0359375 3.91144531 -1.571875 3.01039063 -1.09375 2.08203125 C-0.7328125 1.39496094 -0.371875 0.70789063 0 0 Z " fill="#807CE4" transform="translate(85,135)"/>
<path d="M0 0 C2.3125 -0.1875 2.3125 -0.1875 5 0 C6.66796875 1.51171875 6.66796875 1.51171875 8 3 C6.71349294 3.69710731 5.42059335 4.38242876 4.125 5.0625 C3.04605469 5.63677734 3.04605469 5.63677734 1.9453125 6.22265625 C1.30335938 6.47917969 0.66140625 6.73570312 0 7 C-0.66 6.67 -1.32 6.34 -2 6 C-1.34 5.01 -0.68 4.02 0 3 C0 2.01 0 1.02 0 0 Z " fill="#7D78E9" transform="translate(299,226)"/>
<path d="M0 0 C1.5 1 1.5 1 3 3 C3.39491399 5.79873829 3.227129 8.13817454 3 11 C2.34 11.66 1.68 12.32 1 13 C-0.2834998 8.9088444 -1.38021934 5.3091525 -1 1 C-0.67 0.67 -0.34 0.34 0 0 Z " fill="#7A76E4" transform="translate(90,208)"/>
<path d="M0 0 C2.92300138 2.47783163 3.97340327 4.9851711 5.25 8.5625 C5.60578125 9.53316406 5.9615625 10.50382813 6.328125 11.50390625 C7 14 7 14 6 16 C5.67 14.68 5.34 13.36 5 12 C4.34 12 3.68 12 3 12 C2.49166409 10.75336669 1.99368855 9.50250613 1.5 8.25 C1.2215625 7.55390625 0.943125 6.8578125 0.65625 6.140625 C0 4 0 4 0 0 Z " fill="#928CE8" transform="translate(106,181)"/>
<path d="M0 0 C2.64 0.33 5.28 0.66 8 1 C8.144375 1.598125 8.28875 2.19625 8.4375 2.8125 C8.8872439 4.56150404 9.42892341 6.28677023 10 8 C4.98886765 6.5682479 3.05530451 4.01554307 0 0 Z " fill="#8984E7" transform="translate(244,171)"/>
<path d="M0 0 C0.66 0 1.32 0 2 0 C2 0.99 2 1.98 2 3 C3.299375 3.12375 4.59875 3.2475 5.9375 3.375 C8.15234375 3.5859375 8.15234375 3.5859375 10 4 C10.33 4.66 10.66 5.32 11 6 C8.43851555 6.07115235 6.28787045 6.0822487 3.8125 5.375 C3.214375 5.25125 2.61625 5.1275 2 5 C1.34 5.66 0.68 6.32 0 7 C-1.125 2.25 -1.125 2.25 0 0 Z " fill="#736CEA" transform="translate(90,169)"/>
<path d="M0 0 C3.44216672 2.6598561 3.99504674 5.90288286 5 10 C4.01 10.66 3.02 11.32 2 12 C1.896875 10.88625 1.79375 9.7725 1.6875 8.625 C1.460625 7.42875 1.23375 6.2325 1 5 C0.01 4.34 -0.98 3.68 -2 3 C-1 1 -1 1 0 0 Z " fill="#837EE4" transform="translate(313,257)"/>
<path d="M0 0 C1.32 0.66 2.64 1.32 4 2 C3.21681311 5.91593446 1.60820142 9.36406635 0 13 C-0.33 13 -0.66 13 -1 13 C-1 11.02 -1 9.04 -1 7 C-0.34 7 0.32 7 1 7 C1 5.35 1 3.7 1 2 C0.34 1.67 -0.32 1.34 -1 1 C-0.67 0.67 -0.34 0.34 0 0 Z " fill="#8985E6" transform="translate(259,264)"/>
<path d="M0 0 C0.66 0 1.32 0 2 0 C2.98726527 2.66561622 3.0275526 3.90126985 2.25 6.6875 C1 9 1 9 -2 10 C-2.17942163 6.05272412 -2.09350689 3.4019487 0 0 Z " fill="#5C56EA" transform="translate(312,208)"/>
<path d="M0 0 C0.66 0.33 1.32 0.66 2 1 C1.39301257 5.12751449 -0.03810791 8.3321148 -2 12 C-3.0625 10.1875 -3.0625 10.1875 -4 8 C-3.67 7.01 -3.34 6.02 -3 5 C-2.01 4.67 -1.02 4.34 0 4 C0 2.68 0 1.36 0 0 Z " fill="#8C85E8" transform="translate(317,209)"/>
<path d="M0 0 C0.556875 0.639375 1.11375 1.27875 1.6875 1.9375 C4.22066561 4.19680987 5.68341424 4.63149047 9 5 C9.33 6.32 9.66 7.64 10 9 C5.61633881 7.80445604 2.84621677 6.6125059 0 3 C0 2.01 0 1.02 0 0 Z " fill="#7C76E2" transform="translate(246,349)"/>
<path d="M0 0 C3.7910119 1.44950455 7.3874638 3.15172566 11 5 C11 5.33 11 5.66 11 6 C6.8015641 6.34986966 5.22530013 5.60104849 2 3 C-0.14733927 2.29485154 -0.14733927 2.29485154 -2 2 C-1.34 1.34 -0.68 0.68 0 0 Z " fill="#9491E6" transform="translate(243,203)"/>
<path d="M0 0 C0.66 0.33 1.32 0.66 2 1 C1.360625 1.598125 0.72125 2.19625 0.0625 2.8125 C-2.20310389 4.90810337 -2.20310389 4.90810337 -3 8 C-5.0625 8.6875 -5.0625 8.6875 -7 9 C-7 9.66 -7 10.32 -7 11 C-7.66 10.67 -8.32 10.34 -9 10 C-7.8758824 8.70756532 -6.75067408 7.41607925 -5.625 6.125 C-4.99851563 5.40570313 -4.37203125 4.68640625 -3.7265625 3.9453125 C-2.52573166 2.5923402 -1.2791655 1.2791655 0 0 Z " fill="#9791E5" transform="translate(250,124)"/>
<path d="M0 0 C0.33 0.99 0.66 1.98 1 3 C-3.62 2.34 -8.24 1.68 -13 1 C-13 0.67 -13 0.34 -13 0 C-8.37078475 -1.0161692 -4.65537393 -0.83796731 0 0 Z " fill="#9893EC" transform="translate(284,262)"/>
<path d="M0 0 C3.36720387 1.39332574 4.9859524 2.9789286 7 6 C5.35 6.33 3.7 6.66 2 7 C0 4 0 4 0 0 Z " fill="#8D88E7" transform="translate(306,173)"/>
<path d="M0 0 C0.99 0.33 1.98 0.66 3 1 C1.84414715 4.91211733 0.64465038 7.8745041 -2 11 C-2 8.69 -2 6.38 -2 4 C-1.34 4 -0.68 4 0 4 C0 2.68 0 1.36 0 0 Z " fill="#8480E4" transform="translate(117,123)"/>
<path d="M0 0 C1.90318884 2.85478326 2.4619099 4.41941308 3.125 7.6875 C3.29257813 8.49574219 3.46015625 9.30398437 3.6328125 10.13671875 C3.75398438 10.75160156 3.87515625 11.36648437 4 12 C3.34 12 2.68 12 2 12 C-0.60018816 8.09971775 -0.15085514 4.52565431 0 0 Z " fill="#8E8BE5" transform="translate(113,198)"/>
<path d="M0 0 C2.97 0 5.94 0 9 0 C5.71536341 2.18975773 2.79303725 2.99806563 -1 4 C-0.67 2.68 -0.34 1.36 0 0 Z " fill="#8983E4" transform="translate(291,355)"/>
<path d="M0 0 C0.66 0.66 1.32 1.32 2 2 C1.875 4.5 1.875 4.5 1 7 C-1.0625 8.3125 -1.0625 8.3125 -3 9 C-3 7.68 -3 6.36 -3 5 C-2.01 5 -1.02 5 0 5 C0 3.35 0 1.7 0 0 Z " fill="#928CE4" transform="translate(317,338)"/>
<path d="M0 0 C3 1 3 1 4.1875 2.875 C5 5 5 5 5 8 C4.34 8 3.68 8 3 8 C2.67 7.34 2.34 6.68 2 6 C1.34 6 0.68 6 0 6 C0 4.02 0 2.04 0 0 Z " fill="#5E59DF" transform="translate(108,192)"/>
<path d="M0 0 C2.97 0 5.94 0 9 0 C8.67 1.32 8.34 2.64 8 4 C5.36 3.01 2.72 2.02 0 1 C0 0.67 0 0.34 0 0 Z " fill="#938DE7" transform="translate(301,143)"/>
<path d="M0 0 C1.65 0.33 3.3 0.66 5 1 C4.319375 1.556875 4.319375 1.556875 3.625 2.125 C1.52970606 4.54264685 0.87986715 6.95430602 0 10 C-0.33 10 -0.66 10 -1 10 C-1.125 3.375 -1.125 3.375 0 0 Z " fill="#857FE5" transform="translate(265,139)"/>
<path d="M0 0 C1.70884005 1.62339805 3.37446717 3.29319053 5 5 C5 5.66 5 6.32 5 7 C3.35 7 1.7 7 0 7 C0 4.69 0 2.38 0 0 Z " fill="#8380E7" transform="translate(311,329)"/>
<path d="M0 0 C1.32 0.66 2.64 1.32 4 2 C1.03 4.475 1.03 4.475 -2 7 C-2 5.35 -2 3.7 -2 2 C-1.34 2 -0.68 2 0 2 C0 1.34 0 0.68 0 0 Z " fill="#8681E8" transform="translate(309,221)"/>
<path d="M0 0 C0.66 0 1.32 0 2 0 C2 2.64 2 5.28 2 8 C1.01 8.495 1.01 8.495 0 9 C-0.59732819 6.23735711 -1 3.83967231 -1 1 C-0.67 0.67 -0.34 0.34 0 0 Z " fill="#776EEA" transform="translate(108,138)"/>
<path d="M0 0 C1.65 0.99 3.3 1.98 5 3 C2.34542308 4.32728846 -0.0574037 4.69347955 -3 5 C-3.66 4.34 -4.32 3.68 -5 3 C-3.35 2.01 -1.7 1.02 0 0 Z " fill="#9C99E8" transform="translate(306,325)"/>
<path d="M0 0 C5 2 5 2 10 4 C8.02 4.99 8.02 4.99 6 6 C5.67 5.34 5.34 4.68 5 4 C4.01 3.7834375 4.01 3.7834375 3 3.5625 C2.34 3.376875 1.68 3.19125 1 3 C0.67 2.01 0.34 1.02 0 0 Z " fill="#9B97E7" transform="translate(269,155)"/>
<path d="M0 0 C1.98 1.65 3.96 3.3 6 5 C5.67 5.66 5.34 6.32 5 7 C2.525 6.01 2.525 6.01 0 5 C0 3.35 0 1.7 0 0 Z " fill="#A09AEE" transform="translate(260,327)"/>
<path d="M0 0 C0.75 1.75 0.75 1.75 1 4 C-0.9375 6.25 -0.9375 6.25 -3 8 C-3.99 7.34 -4.98 6.68 -6 6 C-5.01 6 -4.02 6 -3 6 C-2.690625 5.38125 -2.38125 4.7625 -2.0625 4.125 C-1.375 2.75 -0.6875 1.375 0 0 Z " fill="#9B96E6" transform="translate(74,156)"/>
<path d="M0 0 C2.4375 0.8125 2.4375 0.8125 5 2 C6.09658936 5.28976808 5.79953138 6.71303767 5 10 C4.67 10 4.34 10 4 10 C3.67 7.36 3.34 4.72 3 2 C2.01 2 1.02 2 0 2 C0 1.34 0 0.68 0 0 Z " fill="#9F9BE0" transform="translate(312,123)"/>
<path d="M0 0 C1.88391785 3.26545761 2.49287967 6.28111761 3 10 C2.34 10 1.68 10 1 10 C-0.60725635 6.78548731 -0.05748185 3.56387464 0 0 Z " fill="#A29CE5" transform="translate(256,314)"/>
<path d="M0 0 C1.5 1.1875 1.5 1.1875 3 3 C3.1875 5.6875 3.1875 5.6875 3 8 C2.34 8 1.68 8 1 8 C1 6.68 1 5.36 1 4 C0.34 3.67 -0.32 3.34 -1 3 C-1.33 2.34 -1.66 1.68 -2 1 C-1.34 0.67 -0.68 0.34 0 0 Z " fill="#504ABF" transform="translate(331,244)"/>
<path d="M0 0 C1.98 0.99 3.96 1.98 6 3 C6 3.33 6 3.66 6 4 C3.36 4 0.72 4 -2 4 C-2 3.34 -2 2.68 -2 2 C-1.34 2 -0.68 2 0 2 C0 1.34 0 0.68 0 0 Z " fill="#35355B" transform="translate(383,237)"/>
<path d="M0 0 C0.66 0 1.32 0 2 0 C1.8125 2.375 1.8125 2.375 1 5 C-1.5625 6.3125 -1.5625 6.3125 -4 7 C-2.68 4.69 -1.36 2.38 0 0 Z " fill="#8886E1" transform="translate(291,205)"/>
<path d="M0 0 C0.66 0 1.32 0 2 0 C1.42415568 2.38564077 0.77772405 4.66682784 0 7 C-0.99 7 -1.98 7 -3 7 C-2.67 5.68 -2.34 4.36 -2 3 C-1.34 3 -0.68 3 0 3 C0 2.01 0 1.02 0 0 Z " fill="#9C9AE5" transform="translate(95,165)"/>
<path d="M0 0 C2.97 0.99 5.94 1.98 9 3 C9 3.33 9 3.66 9 4 C5.37471432 4.20140476 3.13498292 3.85776765 0 2 C0 1.34 0 0.68 0 0 Z " fill="#9994E7" transform="translate(279,160)"/>
</svg>
