<?xml version="1.0" encoding="UTF-8"?>
<svg version="1.1" xmlns="http://www.w3.org/2000/svg" width="500" height="500">
<path d="M0 0 C4.74225107 2.78596333 7.78626297 5.47361367 9.42565918 10.89123535 C9.93315877 13.36058453 10.02525922 15.65251948 10.06054688 18.17382812 C10.07729965 19.19967514 10.09405243 20.22552216 10.11131287 21.28245544 C10.12485306 22.39451859 10.13839325 23.50658173 10.15234375 24.65234375 C10.17948204 26.39784264 10.17948204 26.39784264 10.20716858 28.17860413 C10.24569728 30.6765048 10.28221372 33.17443716 10.31692505 35.6723938 C10.40727246 42.1541459 10.51236632 48.63565577 10.6171875 55.1171875 C10.63764633 56.40004135 10.65810516 57.6828952 10.67918396 59.00462341 C10.93599967 74.69369981 11.39212425 90.37504229 11.87109375 106.05859375 C12.68906433 106.05637314 13.50703491 106.05415253 14.34979248 106.05186462 C22.05980589 106.03182445 29.76980666 106.01660058 37.47983932 106.00678158 C41.44360211 106.00156384 45.40734336 105.9944863 49.37109375 105.9831543 C53.19658876 105.97228604 57.02206307 105.96630855 60.84757233 105.96371651 C62.30679907 105.96186937 63.76602469 105.95826239 65.22524261 105.95286369 C67.26965277 105.94560101 69.31397745 105.94460502 71.35839844 105.94506836 C72.5219989 105.94284775 73.68559937 105.94062714 74.88446045 105.93833923 C77.40812385 106.03995262 79.4721642 106.31629882 81.87109375 107.05859375 C81.85856567 106.47534332 81.8460376 105.8920929 81.83312988 105.29116821 C81.48705012 89.07073911 81.1856663 72.8498291 80.92828369 56.62774658 C80.89130427 54.31990728 80.85325109 52.01208482 80.81390381 49.70428467 C80.71252492 43.74218669 80.63033722 37.78060305 80.58398438 31.81781006 C80.56716074 30.03098591 80.54332233 28.24421299 80.51220703 26.45758057 C80.47060335 23.98186956 80.4546402 21.50726418 80.4453125 19.03125 C80.4278447 18.32004501 80.41037689 17.60884003 80.39237976 16.87608337 C80.41880065 10.75902615 82.56455337 6.96684031 86.30859375 2.24609375 C90.55541264 -0.98148861 94.64164356 -1.40012995 99.87109375 -0.94140625 C105.54658928 1.10177214 109.16983096 4.65606816 111.87109375 10.05859375 C112.02126413 12.04736453 112.10976731 14.04089886 112.16992188 16.03442383 C112.20927856 17.29292648 112.24863525 18.55142914 112.28918457 19.84806824 C112.32721284 21.23724541 112.36492324 22.62643132 112.40234375 24.015625 C112.44421806 25.45734376 112.48617095 26.89906023 112.52819824 28.34077454 C113.0258646 45.97050537 113.21861945 63.60590331 113.42333984 81.2409668 C113.46597896 84.88944438 113.51312221 88.537842 113.56297302 92.1862278 C113.58919112 94.20749823 113.61015339 96.22883468 113.63098145 98.25016785 C113.64769897 99.46787369 113.6644165 100.68557953 113.68164062 101.94018555 C113.6941687 103.00504684 113.70669678 104.06990814 113.71960449 105.16703796 C113.79334093 107.99152876 113.79334093 107.99152876 114.3705225 110.44172668 C114.85377187 112.96803911 115.00976682 115.25232371 115.03172302 117.82002258 C115.04679146 119.2139473 115.04679146 119.2139473 115.06216431 120.6360321 C115.0679953 121.64341934 115.07382629 122.65080658 115.07983398 123.6887207 C115.08961777 124.75924683 115.09940155 125.82977295 115.10948181 126.93273926 C115.13936467 130.47077195 115.16079888 134.00876714 115.1796875 137.546875 C115.18625933 138.75691885 115.19283115 139.9669627 115.19960213 141.21367455 C115.23216087 147.61598924 115.25662308 154.01828751 115.27612305 160.4206543 C115.29394998 165.71582201 115.32879895 171.01045862 115.37866211 176.30541992 C115.43884611 182.70437638 115.46959588 189.10283965 115.47929573 195.50206566 C115.48785198 197.93771291 115.506674 200.37334692 115.53603935 202.80883217 C115.57496113 206.21990043 115.57598693 209.6290455 115.56811523 213.0402832 C115.59811615 214.54225502 115.59811615 214.54225502 115.62872314 216.0745697 C115.56558578 222.18265889 114.41996792 225.74227805 110.54971409 230.50064373 C106.29801413 234.44670341 102.14540057 234.49709245 96.5625 234.36328125 C92.63777439 233.91897269 90.69248754 232.81117306 87.87109375 230.05859375 C84.1861697 224.47265785 83.26842001 219.47738113 83.23339844 212.88867188 C83.20326157 211.57018753 83.20326157 211.57018753 83.17251587 210.22506714 C83.11119476 207.34668373 83.07688109 204.46866922 83.04296875 201.58984375 C83.00551744 199.58342349 82.96636854 197.57703427 82.92559814 195.57067871 C82.82323704 190.31020461 82.7438369 185.04962854 82.66931152 179.78869629 C82.57492372 173.4656696 82.45185 167.14314327 82.33361816 160.82052612 C82.15753661 151.23341889 82.0177671 141.64639914 81.87109375 132.05859375 C59.10109375 132.05859375 36.33109375 132.05859375 12.87109375 132.05859375 C12.85691406 138.69082031 12.84273438 145.32304687 12.828125 152.15625 C12.80806349 156.3626833 12.78654187 160.5690078 12.75976562 164.77539062 C12.71742172 171.44918056 12.6804302 178.1226947 12.67553711 184.79663086 C12.67125267 190.17853288 12.64277715 195.55981721 12.59766197 200.94152641 C12.58469175 202.99273516 12.58037759 205.04401785 12.58493996 207.09526253 C12.58984922 209.97311886 12.56373873 212.8491722 12.53051758 215.72680664 C12.53914322 216.57125839 12.54776886 217.41571014 12.55665588 218.28575134 C12.43876112 224.39461072 10.86983181 227.42649511 6.87109375 232.05859375 C2.47285725 234.94886345 -3.04259375 234.55741218 -8.12890625 234.05859375 C-13.30372113 232.49638548 -15.37778734 229.83677033 -18.06090355 225.38756561 C-19.91859926 221.33652619 -19.87659544 217.41038985 -19.88012695 213.01269531 C-19.90036423 212.03903519 -19.9206015 211.06537506 -19.94145203 210.06221008 C-20.00228427 206.85779493 -20.02871651 203.65409027 -20.0546875 200.44921875 C-20.09030983 198.19924603 -20.12803987 195.94930578 -20.16777039 193.69940186 C-20.26652561 187.77581051 -20.33591342 181.85222214 -20.39935303 175.92816162 C-20.46863664 169.96484347 -20.56692984 164.00201298 -20.66210938 158.0390625 C-20.90946615 141.97860742 -21.15628629 125.91841258 -21.125 109.85571289 C-21.10712907 100.52156255 -21.24136434 91.19321924 -21.40579796 81.86070824 C-21.50587243 76.02641056 -21.58880244 70.19183454 -21.67549419 64.35732555 C-21.75209617 59.26661998 -21.83440418 54.17611724 -21.92797852 49.08569336 C-22.01923834 44.10259758 -22.09540598 39.11947319 -22.16135597 34.13598061 C-22.18899548 32.25211098 -22.22209389 30.3683128 -22.2609005 28.48464012 C-22.31418864 25.86108542 -22.34813678 23.23792838 -22.37768555 20.61401367 C-22.39782211 19.84773651 -22.41795868 19.08145935 -22.43870544 18.29196167 C-22.472493 12.61236064 -21.56804087 7.53098929 -17.41015625 3.31640625 C-16.82234375 2.94257812 -16.23453125 2.56875 -15.62890625 2.18359375 C-14.7471875 1.59964844 -14.7471875 1.59964844 -13.84765625 1.00390625 C-9.40323392 -1.44052603 -4.71956221 -2.08699907 0 0 Z " fill="#070707" transform="translate(348.12890625,121.94140625)"/>
<path d="M0 0 C1.10923828 -0.00386719 2.21847656 -0.00773437 3.36132812 -0.01171875 C4.51955078 -0.00011719 5.67777344 0.01148437 6.87109375 0.0234375 C8.03318359 0.01183594 9.19527344 0.00023438 10.39257812 -0.01171875 C11.50052734 -0.00785156 12.60847656 -0.00398438 13.75 0 C15.27669312 0.00507568 15.27669312 0.00507568 16.83422852 0.01025391 C17.65076904 0.13835449 18.46730957 0.26645508 19.30859375 0.3984375 C21.36896678 3.48899705 21.55658617 4.10769912 21.53564453 7.59448242 C21.53549347 8.43512741 21.53534241 9.2757724 21.53518677 10.14189148 C21.5248642 11.04510635 21.51454163 11.94832123 21.50390625 12.87890625 C21.50107635 13.80689529 21.49824646 14.73488434 21.49533081 15.69099426 C21.48413211 18.65610629 21.4590281 21.62091671 21.43359375 24.5859375 C21.42356355 26.59569876 21.41443777 28.60546476 21.40625 30.61523438 C21.38419379 35.54308503 21.34966604 40.47071012 21.30859375 45.3984375 C26.4723879 44.28514508 26.4723879 44.28514508 30.3203125 40.94921875 C30.87332031 39.88058594 31.42632812 38.81195313 31.99609375 37.7109375 C32.31368652 37.11804932 32.6312793 36.52516113 32.95849609 35.91430664 C34.10449099 33.75636548 35.2088167 31.58030319 36.30859375 29.3984375 C37.81823105 26.40804562 39.33062281 23.419325 40.85473633 20.4362793 C41.89129219 18.40083429 42.91377651 16.35814949 43.9206543 14.30786133 C47.08800677 8.04792563 49.87149007 3.61698934 56.30859375 0.3984375 C59.78184281 0.1328432 63.26381654 0.16692338 66.74609375 0.1484375 C68.19725586 0.1175 68.19725586 0.1175 69.67773438 0.0859375 C71.07088867 0.07820313 71.07088867 0.07820313 72.4921875 0.0703125 C73.76920532 0.05629395 73.76920532 0.05629395 75.07202148 0.04199219 C77.75925361 0.47025972 78.62361056 1.31922794 80.30859375 3.3984375 C78.38015807 8.03267978 76.29210869 12.46567756 73.91015625 16.890625 C73.59331879 17.48086456 73.27648132 18.07110413 72.95004272 18.67922974 C71.94729986 20.54545504 70.94045682 22.40943257 69.93359375 24.2734375 C69.26667141 25.51418552 68.60000291 26.75507002 67.93359375 27.99609375 C66.06715844 31.46820324 64.18990983 34.93436485 62.30859375 38.3984375 C61.56138062 39.77672729 61.56138062 39.77672729 60.79907227 41.18286133 C60.36264404 41.97974365 59.92621582 42.77662598 59.4765625 43.59765625 C59.10813232 44.27143311 58.73970215 44.94520996 58.36010742 45.6394043 C56.90347514 48.07614347 55.10319434 50.20503678 53.30859375 52.3984375 C53.30859375 53.0584375 53.30859375 53.7184375 53.30859375 54.3984375 C54.91029104 55.44012937 54.91029104 55.44012937 56.93359375 56.4609375 C66.88406239 62.55183043 69.53059192 73.96783177 72.87109375 84.4609375 C75.61390269 93.03088138 78.18548965 100.89835715 83.30859375 108.3984375 C83.94750977 110.60180664 83.94750977 110.60180664 84.30859375 112.3984375 C82.89692489 113.38479587 81.47903191 114.36225005 80.05859375 115.3359375 C79.2696875 115.88121094 78.48078125 116.42648438 77.66796875 116.98828125 C73.9712661 119.19773432 70.75897911 119.56787904 66.49609375 119.6484375 C65.68527344 119.67421875 64.87445313 119.7 64.0390625 119.7265625 C60.29251729 119.27633389 57.61771575 118.21826464 54.30859375 116.3984375 C52.26953125 113.60546875 52.26953125 113.60546875 50.68359375 110.2109375 C50.39637451 109.60088867 50.10915527 108.99083984 49.81323242 108.36230469 C47.1316657 102.45642872 45.25864577 96.32208386 43.421875 90.11328125 C40.47592038 79.38083713 40.47592038 79.38083713 33.30859375 71.3984375 C31.25990301 70.95414312 29.19405082 70.58549555 27.12109375 70.2734375 C26.03441406 70.10585937 24.94773438 69.93828125 23.828125 69.765625 C22.58095703 69.58386719 22.58095703 69.58386719 21.30859375 69.3984375 C21.31644897 70.67352173 21.31644897 70.67352173 21.32446289 71.97436523 C21.51187246 107.02944321 21.51187246 107.02944321 20.30859375 117.3984375 C17.66318778 120.04384347 9.9345519 118.58405903 6.37109375 118.5859375 C4.54288086 118.60430664 4.54288086 118.60430664 2.67773438 118.62304688 C0.93459961 118.62594727 0.93459961 118.62594727 -0.84375 118.62890625 C-2.45237915 118.63506958 -2.45237915 118.63506958 -4.09350586 118.64135742 C-6.69140625 118.3984375 -6.69140625 118.3984375 -8.69140625 116.3984375 C-8.94588184 114.3959589 -8.94588184 114.3959589 -8.95210266 111.88819885 C-8.95918747 110.9389856 -8.96627228 109.98977234 -8.97357178 109.01179504 C-8.97109436 107.96706528 -8.96861694 106.92233551 -8.96606445 105.84594727 C-8.97117538 104.74832062 -8.97628632 103.65069397 -8.98155212 102.51980591 C-8.99549955 98.87643036 -8.99448748 95.23324289 -8.9921875 91.58984375 C-8.99607159 89.06640044 -9.00040566 86.54295779 -9.00517273 84.01951599 C-9.01264604 78.72416803 -9.01247318 73.42888963 -9.00708008 68.13354492 C-9.00103946 62.01003188 -9.0133514 55.88674857 -9.03465015 49.76327473 C-9.05437528 43.87609071 -9.05744165 37.98897803 -9.05391502 32.10175896 C-9.05442976 29.59504596 -9.05969576 27.08832941 -9.06972694 24.58163643 C-9.08201538 21.08101657 -9.07534505 17.58093306 -9.0637207 14.08032227 C-9.07136444 13.03761673 -9.07900818 11.99491119 -9.08688354 10.92060852 C-9.07986923 9.96857544 -9.07285492 9.01654236 -9.06562805 8.03565979 C-9.06579579 7.20772195 -9.06596354 6.37978411 -9.06613636 5.52675724 C-8.15184715 0.33395387 -4.66148251 0.01548053 0 0 Z " fill="#F8F8F8" transform="translate(42.69140625,116.6015625)"/>
<path d="M0 0 C6.45162206 0.10163672 10.20211409 1.06365323 15.17456055 5.25097656 C18.16116261 8.92679448 17.93731242 12.32183473 17.97314453 16.89038086 C17.97983154 17.56071854 17.98651855 18.23105621 17.9934082 18.92170715 C18.00744867 20.37690611 18.01934592 21.83212697 18.029356 23.28735924 C18.04580262 25.59601597 18.06904491 27.90451229 18.09425354 30.21308899 C18.16490646 36.77698722 18.22495018 43.3409528 18.27636719 49.9050293 C18.30831082 53.92214099 18.34962974 57.93907056 18.39656258 61.95603371 C18.41249721 63.48169462 18.42485779 65.00739747 18.43346977 66.53311729 C18.2561072 81.34768461 18.2561072 81.34768461 24.79956055 94.25097656 C30.51074743 97.16647756 36.546733 96.86523418 42.79956055 96.25097656 C47.8885808 94.10823119 49.66202908 91.22506695 51.95862579 86.46434021 C53.31034138 82.90658721 53.37116637 79.58692752 53.34545898 75.81542969 C53.35579666 75.01446869 53.36613434 74.21350769 53.37678528 73.38827515 C53.40602779 70.76938254 53.40770846 68.15126901 53.40893555 65.53222656 C53.42392978 63.70518537 53.44065953 61.87815767 53.45904541 60.05114746 C53.50259165 55.26395009 53.52268971 50.47693555 53.53778076 45.6895752 C53.55739786 40.79587043 53.59936264 35.90236178 53.6394043 31.00878906 C53.71456844 21.42291224 53.76494332 11.83707961 53.79956055 2.25097656 C58.85360882 0.7255042 63.0696764 0.00376761 68.36206055 0.06347656 C70.25118164 0.07314453 70.25118164 0.07314453 72.1784668 0.08300781 C75.47627795 0.23598071 78.55458992 0.67830108 81.79956055 1.25097656 C81.86940514 11.5875018 81.92254552 21.92396989 81.95499706 32.26068401 C81.9705807 37.06165149 81.99168377 41.86245623 82.02587891 46.66333008 C82.05873508 51.30584603 82.07646831 55.9482065 82.08419228 60.59082985 C82.08968906 62.35245011 82.10042136 64.11406292 82.11675072 65.87561607 C82.23842677 79.55933119 81.76867041 92.55066497 73.79956055 104.25097656 C73.41541992 104.86457031 73.0312793 105.47816406 72.63549805 106.11035156 C67.44630246 113.30518717 58.48025846 117.14676181 50.05737305 119.13378906 C35.44665356 121.36467311 18.41754433 120.92016686 5.79956055 112.25097656 C-3.53664904 105.0305267 -7.94988657 95.37375419 -9.78277588 83.93728638 C-10.61517077 76.59054691 -10.46438446 69.21759235 -10.4309082 61.83300781 C-10.4297137 60.08135512 -10.42926381 58.32970178 -10.42951965 56.57804871 C-10.42796651 52.93472193 -10.41975995 49.29149505 -10.40625 45.64819336 C-10.38912223 40.96954375 -10.38544023 36.29100202 -10.38619518 31.61232471 C-10.38592418 28.00852929 -10.38045655 24.40475763 -10.37319374 20.80097008 C-10.37000668 19.07411567 -10.36803958 17.34725857 -10.36730003 15.62040138 C-10.36514472 13.22222855 -10.35642234 10.82417319 -10.34570312 8.42602539 C-10.34615631 7.70976486 -10.3466095 6.99350433 -10.34707642 6.25553894 C-10.29611701 -1.49594606 -7.07022553 0.00332677 0 0 Z " fill="#080808" transform="translate(142.200439453125,116.7490234375)"/>
<path d="M0 0 C0.73160713 8.59638375 -3.0984955 15.17290445 -8 22 C-11.81370315 21.60885096 -14.87762582 20.68351957 -18.3125 19.0625 C-27.25787057 14.96936039 -38.2372938 12.87030799 -47.828125 15.890625 C-50.15011086 16.80597064 -50.15011086 16.80597064 -51 19 C-51.54143802 23.06405542 -51.54143802 23.06405542 -51 27 C-45.95203988 31.34218673 -40.63158981 33.53672 -34.4375 35.8125 C-19.5130013 41.55986507 -6.1107596 47.60154853 1.0546875 62.66796875 C4.74758836 71.77814154 3.75840598 82.05979173 0 91 C-1.9375 94.3125 -1.9375 94.3125 -4 97 C-4.53625 97.825 -5.0725 98.65 -5.625 99.5 C-14.23553081 108.56371664 -26.57070009 111.53170556 -38.65625 112.203125 C-54.06966815 112.39109351 -71.24778698 110.15610525 -83.94140625 100.52734375 C-85.66281064 98.04369388 -85.25775247 95.56932141 -84.859375 92.6953125 C-83.09966748 87.17622982 -79.42329894 82.60858696 -76 78 C-71.90011795 78.61686299 -68.74892658 80.00621881 -65.0625 81.875 C-55.0541229 86.56819378 -44.01802974 89.76903032 -33 87 C-30.14001655 85.72482126 -30.14001655 85.72482126 -29 83 C-28.40078671 79.85706756 -28.15824419 77.10038008 -29 74 C-32.71767712 69.30247 -36.92986866 67.39105425 -42.3125 65.1875 C-43.92172755 64.49747824 -45.52977868 63.80470727 -47.13671875 63.109375 C-47.9467334 62.76068359 -48.75674805 62.41199219 -49.59130859 62.05273438 C-73.98088203 51.39311136 -73.98088203 51.39311136 -80.08984375 38.4296875 C-83.41548598 29.55179279 -82.57555774 20.65230384 -79 12 C-74.74618636 3.28981017 -67.68618311 -2.6007081 -58.796875 -6.3515625 C-38.58430064 -13.27163106 -18.78147541 -9.3907377 0 0 Z " fill="#F8F8F8" transform="translate(318,125)"/>
<path d="M0 0 C1.29461655 0.00222061 2.58923309 0.00444122 3.92308044 0.00672913 C4.99131546 0.00651009 4.99131546 0.00651009 6.08113098 0.00628662 C8.4457143 0.00698581 10.81021979 0.01477846 13.17478943 0.02259827 C14.81003781 0.02446243 16.44528675 0.02588634 18.08053589 0.02688599 C22.39273103 0.03071134 26.7048927 0.04054177 31.01707458 0.05158997 C35.41404263 0.06180371 39.81101607 0.06638353 44.20799255 0.07142639 C52.84147149 0.08216402 61.47492317 0.09924065 70.10838318 0.12025452 C72.71651632 8.7415835 72.33967837 14.62893669 70.10838318 23.12025452 C69.55936844 23.13056198 69.0103537 23.14086945 68.44470215 23.15148926 C62.75117037 23.25933399 57.05780397 23.37394901 51.36448669 23.49256897 C49.23724311 23.53598874 47.10996307 23.57765845 44.98265076 23.61756897 C41.93200167 23.67510158 38.88153729 23.73884419 35.83103943 23.80384827 C34.87375443 23.82056076 33.91646942 23.83727325 32.93017578 23.85449219 C32.04933823 23.87443741 31.16850067 23.89438263 30.26097107 23.91493225 C29.48153641 23.93047653 28.70210175 23.94602081 27.89904785 23.96203613 C26.08544965 23.9291457 26.08544965 23.9291457 25.10838318 25.12025452 C24.95152069 26.67973994 24.85761679 28.24568119 24.79197693 29.81166077 C24.75386902 30.66187805 24.71576111 31.51209534 24.67649841 32.38807678 C24.61184387 34.01894226 24.61184387 34.01894226 24.54588318 35.68275452 C24.40150818 39.12712952 24.25713318 42.57150452 24.10838318 46.12025452 C36.31838318 46.12025452 48.52838318 46.12025452 61.10838318 46.12025452 C62.3916444 49.97003817 62.25346298 53.61098792 62.23338318 57.62025452 C62.23725037 58.39240295 62.24111755 59.16455139 62.24510193 59.96009827 C62.23937369 63.26529188 62.16045818 65.9640295 61.10838318 69.12025452 C48.89838318 69.12025452 36.68838318 69.12025452 24.10838318 69.12025452 C24.10838318 76.71025452 24.10838318 84.30025452 24.10838318 92.12025452 C27.70615662 92.10865295 31.30393005 92.09705139 35.01072693 92.08509827 C38.47906913 92.07730894 41.94741037 92.07123147 45.41575623 92.06532288 C47.8340549 92.06028103 50.25235051 92.05344774 52.67063904 92.04481506 C56.13817601 92.03274295 59.60567284 92.02702488 63.07322693 92.02259827 C64.16175461 92.01743698 65.25028229 92.0122757 66.37179565 92.00695801 C67.87323875 92.00684471 67.87323875 92.00684471 69.40501404 92.00672913 C70.73405006 92.00339821 70.73405006 92.00339821 72.0899353 92 C74.10838318 92.12025452 74.10838318 92.12025452 75.10838318 93.12025452 C75.73164641 99.37685847 75.35328479 104.60392177 72.10838318 110.12025452 C69.12967714 113.17839272 66.09434219 115.99857637 61.7063446 116.26742554 C60.19460663 116.28219185 60.19460663 116.28219185 58.65232849 116.29725647 C56.93979889 116.31650932 56.93979889 116.31650932 55.19267273 116.33615112 C53.95313843 116.34353806 52.71360413 116.35092499 51.43650818 116.35853577 C50.16619751 116.36660751 48.89588684 116.37467926 47.58708191 116.38299561 C44.8936243 116.39684778 42.20028956 116.40786046 39.50682068 116.41542053 C36.06569734 116.42646601 32.62522407 116.46084275 29.18432999 116.50059223 C25.89345406 116.5331153 22.60252031 116.53754278 19.31150818 116.54603577 C18.0800708 116.56354385 16.84863342 116.58105194 15.57987976 116.59909058 C9.14293194 116.58277609 4.9516054 116.56194199 0.10838318 112.12025452 C-3.35765116 108.2956649 -4.01607339 104.79332816 -4.01860046 99.73568726 C-4.02142029 98.86497589 -4.02424011 97.99426453 -4.02714539 97.09716797 C-4.02512115 96.14999405 -4.02309692 95.20282013 -4.02101135 94.22694397 C-4.02276367 93.22334839 -4.02451599 92.21975281 -4.02632141 91.18574524 C-4.03072313 87.8683245 -4.02780848 84.55095705 -4.02442932 81.23353577 C-4.02510268 78.93236277 -4.02607298 76.63118984 -4.02732849 74.33001709 C-4.02880305 69.5090314 -4.02665804 64.68806423 -4.02198792 59.86708069 C-4.01628117 53.67261696 -4.01957714 47.47819647 -4.02556038 41.28373432 C-4.02916431 36.53386099 -4.02802835 31.78399801 -4.02543259 27.03412437 C-4.02476335 24.74905072 -4.02559163 22.46397615 -4.02791214 20.17890358 C-4.03043694 16.99437066 -4.02660095 13.80990904 -4.02101135 10.62538147 C-4.02303558 9.67213486 -4.02505981 8.71888824 -4.02714539 7.73675537 C-4.02432556 6.87450348 -4.02150574 6.01225159 -4.01860046 5.12387085 C-4.01822344 4.3704305 -4.01784641 3.61699015 -4.01745796 2.84071827 C-3.79726235 -0.16973257 -3.04189377 0.12650413 0 0 Z " fill="#070707" transform="translate(145.89161682128906,242.87974548339844)"/>
<path d="M0 0 C7.43793565 5.47319793 12.12568163 11.712582 14.6875 20.5625 C15.46469029 27.0908984 15.85424418 32.53460853 12 38.1875 C8.75040102 41.49565032 6.69426834 43.46980525 1.984375 43.7109375 C0.57224725 43.68731455 -0.83966259 43.63740803 -2.25 43.5625 C-2.96929687 43.54832031 -3.68859375 43.53414063 -4.4296875 43.51953125 C-9.62797619 43.3735119 -9.62797619 43.3735119 -12 42.1875 C-12.7204108 38.917363 -13.25897115 35.66096572 -13.76757812 32.35351562 C-14.62333411 27.23316349 -15.56827825 22.20404974 -19.76171875 18.7265625 C-24.79952218 16.33539414 -28.41872404 15.55735594 -34 16.1875 C-38.77416978 17.93190819 -41.11291179 20.06308827 -44 24.1875 C-47.68823796 33.35117765 -48.37988983 42.7146096 -48.4375 52.5 C-48.44749023 53.48911377 -48.45748047 54.47822754 -48.46777344 55.49731445 C-48.35307229 65.32474499 -46.49554257 75.60682647 -40.1875 83.4375 C-34.3385898 88.11662816 -27.15754063 87.89616739 -20 87.1875 C-13.096437 85.55439907 -7.56352795 82.5776627 -1.97265625 78.26171875 C0 77.1875 0 77.1875 1.99609375 77.25 C4.71143794 78.52033646 6.17409463 80.23383426 8.125 82.5 C8.80820312 83.27988281 9.49140625 84.05976563 10.1953125 84.86328125 C12.41109747 87.71694371 13.77430397 90.08723186 14.5 93.625 C13.73386435 97.55144523 11.1461937 99.06271588 8 101.1875 C7.28457031 101.67347656 6.56914062 102.15945313 5.83203125 102.66015625 C-5.92763852 110.16102228 -17.44935128 113.35897568 -31.25 113.4375 C-32.14074219 113.458125 -33.03148437 113.47875 -33.94921875 113.5 C-44.49191342 113.56120577 -52.73175633 110.67845765 -61 104.1875 C-61.61746094 103.70796875 -62.23492187 103.2284375 -62.87109375 102.734375 C-73.78553752 93.10827315 -77.71532143 77.10016254 -79 63.1875 C-80.18542967 42.04657478 -77.70401259 22.08773097 -63.5 5.5 C-59.67741933 1.6122987 -55.94266581 -1.49121231 -51 -3.8125 C-50.175 -4.20308594 -49.35 -4.59367188 -48.5 -4.99609375 C-32.65415626 -11.35643936 -14.36740488 -8.82845586 0 0 Z " fill="#F9F9F9" transform="translate(305,247.8125)"/>
<path d="M0 0 C2.64509816 -0.30763319 5.05812425 -0.41984824 7.70678711 -0.40405273 C8.89968605 -0.41434761 8.89968605 -0.41434761 10.11668396 -0.42485046 C12.75375059 -0.4431987 15.3902268 -0.43926957 18.02734375 -0.43359375 C19.85576065 -0.43815189 21.68417583 -0.44345635 23.5125885 -0.44947815 C27.34855093 -0.45842514 31.18430535 -0.45596835 35.02026367 -0.44604492 C39.94138412 -0.43455624 44.86178694 -0.45475692 49.78281307 -0.48396206 C53.56002887 -0.50229009 57.33707166 -0.50203836 61.11432076 -0.49632454 C62.92884897 -0.49617089 64.74338859 -0.50225104 66.55787468 -0.51461601 C69.09364971 -0.52945964 71.62808584 -0.51889871 74.16381836 -0.50170898 C74.916651 -0.51137695 75.66948364 -0.52104492 76.44512939 -0.53100586 C79.73281747 -0.48422947 81.52023013 -0.45266827 83.96485901 1.85386658 C85.32047216 4.66442737 85.39855655 6.82410969 85.375 9.9375 C85.38660156 11.46697266 85.38660156 11.46697266 85.3984375 13.02734375 C84.83260284 17.2489141 83.20114807 19.91509206 80.0625 22.75 C76.74065983 24.76323647 73.50441674 25.12477916 69.671875 25.31640625 C68.87265625 25.35830078 68.0734375 25.40019531 67.25 25.44335938 C66.425 25.48267578 65.6 25.52199219 64.75 25.5625 C63.90953125 25.60568359 63.0690625 25.64886719 62.203125 25.69335938 C60.13559329 25.79908543 58.06781719 25.90001295 56 26 C56.00444122 27.10833694 56.00888245 28.21667389 56.01345825 29.3585968 C56.05395946 39.79139646 56.0839628 50.22418023 56.10362434 60.6570406 C56.11407224 66.02098676 56.12824982 71.38486959 56.15087891 76.7487793 C56.17257138 81.92291577 56.18456104 87.09699123 56.18975449 92.27116966 C56.19345671 94.24758045 56.200686 96.22398781 56.21146011 98.2003727 C56.22592722 100.96348985 56.22797995 103.72635317 56.22705078 106.48950195 C56.23424133 107.31093185 56.24143188 108.13236176 56.24884033 108.97868347 C56.23470835 112.84913877 56.19802642 114.70296037 54 118 C51.50976563 118.35644531 51.50976563 118.35644531 48.40625 118.328125 C46.73755859 118.32039063 46.73755859 118.32039063 45.03515625 118.3125 C43.86855469 118.291875 42.70195313 118.27125 41.5 118.25 C40.33339844 118.24484375 39.16679688 118.2396875 37.96484375 118.234375 C29.30825708 118.15412854 29.30825708 118.15412854 27 117 C26.67 86.64 26.34 56.28 26 25 C17.42 25 8.84 25 0 25 C-2.06935577 21.89596635 -2.25517909 21.18099981 -2.265625 17.65625 C-2.26820312 16.82222656 -2.27078125 15.98820312 -2.2734375 15.12890625 C-2.26570313 14.26136719 -2.25796875 13.39382812 -2.25 12.5 C-2.25773437 11.63246094 -2.26546875 10.76492187 -2.2734375 9.87109375 C-2.26957031 8.62005859 -2.26957031 8.62005859 -2.265625 7.34375 C-2.26336914 6.58255859 -2.26111328 5.82136719 -2.25878906 5.03710938 C-2 3 -2 3 0 0 Z " fill="#FAFAFA" transform="translate(34,242)"/>
<path d="M0 0 C1.5 1.375 1.5 1.375 3 3 C3 3.66 3 4.32 3 5 C3.66 5 4.32 5 5 5 C5 5.66 5 6.32 5 7 C13.25 7 21.5 7 30 7 C30.35937027 22.84437844 30.67283993 38.68877084 30.9395752 54.53497314 C30.99763547 57.86440749 31.06197315 61.19366313 31.12792969 64.52294922 C31.22425016 69.50413888 31.29369973 74.48500897 31.34204102 79.46688843 C31.36389278 81.31208789 31.39455631 83.15720547 31.43432617 85.00210571 C31.48794796 87.56948292 31.50962656 90.13526727 31.5234375 92.703125 C31.55738113 93.81704872 31.55738113 93.81704872 31.5920105 94.95347595 C31.56928534 100.59554526 29.7472621 103.9882639 26 108 C21.6017635 110.8902697 16.0863125 110.49881843 11 110 C5.82780433 108.43858244 3.73964094 105.77523949 1.05680275 101.32614136 C-0.78363373 97.27513429 -0.65550886 93.38891804 -0.56762695 89.00390625 C-0.56835709 88.03713455 -0.56908722 87.07036285 -0.56983948 86.07429504 C-0.5663773 82.90311066 -0.52758025 79.73342535 -0.48828125 76.5625 C-0.47894828 74.35433759 -0.47183445 72.14616478 -0.46684265 69.93798828 C-0.44781122 64.14437958 -0.39874297 58.35140408 -0.34332275 52.55804443 C-0.29204742 46.63904382 -0.26931089 40.71994025 -0.24414062 34.80078125 C-0.19062104 23.20024363 -0.10535449 11.6001746 0 0 Z " fill="#030303" transform="translate(329,246)"/>
<path d="M0 0 C0.83987457 -0.00137466 1.67974915 -0.00274933 2.54507446 -0.00416565 C3.4528212 -0.00057037 4.36056793 0.0030249 5.29582214 0.00672913 C6.26215576 0.0065831 7.22848938 0.00643707 8.22410583 0.00628662 C11.41103884 0.00698204 14.59791305 0.01475712 17.78483582 0.02259827 C19.99729378 0.02446376 22.20975216 0.02588704 24.42221069 0.02688599 C30.24024093 0.0307008 36.05824612 0.04052227 41.87626648 0.05158997 C47.81518719 0.06182634 53.75411195 0.06638838 59.69303894 0.07142639 C71.34213847 0.08214545 82.99121943 0.09920946 94.64030457 0.12025452 C95.48699918 3.29490968 95.76182731 6.052883 95.75382996 9.34779358 C95.75371666 10.90895905 95.75371666 10.90895905 95.75360107 12.50166321 C95.74843979 13.61845459 95.7432785 14.73524597 95.73796082 15.88587952 C95.73654587 17.03441406 95.73513092 18.18294861 95.7336731 19.36628723 C95.728076 23.03430283 95.715524 26.70225737 95.70280457 30.37025452 C95.69778919 32.8572328 95.69322635 35.34421204 95.68913269 37.83119202 C95.67810752 43.92756701 95.66137225 50.0239064 95.64030457 56.12025452 C95.31030457 56.12025452 94.98030457 56.12025452 94.64030457 56.12025452 C94.31030457 41.93025452 93.98030457 27.74025452 93.64030457 13.12025452 C70.87030457 13.12025452 48.10030457 13.12025452 24.64030457 13.12025452 C24.31030457 29.62025452 23.98030457 46.12025452 23.64030457 63.12025452 C23.31030457 63.12025452 22.98030457 63.12025452 22.64030457 63.12025452 C22.64030457 46.29025452 22.64030457 29.46025452 22.64030457 12.12025452 C14.39030457 12.12025452 6.14030457 12.12025452 -2.35969543 12.12025452 C-2.35969543 11.46025452 -2.35969543 10.80025452 -2.35969543 10.12025452 C-3.01969543 10.12025452 -3.67969543 10.12025452 -4.35969543 10.12025452 C-5.01969543 9.13025452 -5.67969543 8.14025452 -6.35969543 7.12025452 C-6.68969543 22.63025452 -7.01969543 38.14025452 -7.35969543 54.12025452 C-7.68969543 54.12025452 -8.01969543 54.12025452 -8.35969543 54.12025452 C-8.68969543 36.63025452 -9.01969543 19.14025452 -9.35969543 1.12025452 C-5.8952038 0.42735619 -3.40058126 -0.00432094 0 0 Z " fill="#F6F6F6" transform="translate(336.3596954345703,240.87974548339844)"/>
<path d="M0 0 C0.9583374 0.00523682 1.9166748 0.01047363 2.90405273 0.01586914 C4.45576172 0.02070313 4.45576172 0.02070313 6.03881836 0.02563477 C7.12743164 0.03401367 8.21604492 0.04239258 9.33764648 0.05102539 C10.97636719 0.05779297 10.97636719 0.05779297 12.64819336 0.06469727 C15.35723144 0.07652713 18.06616248 0.09300996 20.77514648 0.11352539 C17.90540764 1.72988027 15.73050446 2.38686719 12.44702148 2.52758789 C11.64780273 2.56625977 10.84858398 2.60493164 10.02514648 2.64477539 C8.78764648 2.69118164 8.78764648 2.69118164 7.52514648 2.73852539 C6.26444336 2.7965332 6.26444336 2.7965332 4.97827148 2.85571289 C2.91091267 2.94968375 0.84306021 3.03268103 -1.22485352 3.11352539 C-1.22041229 4.22186234 -1.21597107 5.33019928 -1.21139526 6.47212219 C-1.17089406 16.90492185 -1.14089071 27.33770562 -1.12122917 37.77056599 C-1.11078127 43.13451215 -1.0966037 48.49839498 -1.07397461 53.86230469 C-1.05228214 59.03644116 -1.04029247 64.21051662 -1.03509903 69.38469505 C-1.0313968 71.36110584 -1.02416751 73.3375132 -1.0133934 75.31389809 C-0.9989263 78.07701524 -0.99687357 80.83987856 -0.99780273 83.60302734 C-0.98701691 84.8351722 -0.98701691 84.8351722 -0.97601318 86.09220886 C-0.99014517 89.96266416 -1.0268271 91.81648576 -3.22485352 95.11352539 C-5.6550293 95.45410156 -5.6550293 95.45410156 -8.67016602 95.40649414 C-9.7465332 95.39682617 -10.82290039 95.3871582 -11.93188477 95.37719727 C-13.05981445 95.35206055 -14.18774414 95.32692383 -15.34985352 95.30102539 C-16.48551758 95.28749023 -17.62118164 95.27395508 -18.79125977 95.26000977 C-21.60292739 95.22456858 -24.41365769 95.17516056 -27.22485352 95.11352539 C-27.22485352 94.78352539 -27.22485352 94.45352539 -27.22485352 94.11352539 C-19.30485352 93.78352539 -11.38485352 93.45352539 -3.22485352 93.11352539 C-3.23009033 90.33180908 -3.23532715 87.55009277 -3.24072266 84.68408203 C-3.25725734 75.5158606 -3.26832425 66.34763853 -3.27666569 57.17940617 C-3.28189485 51.61813128 -3.2889931 46.0568716 -3.30029297 40.49560547 C-3.31112067 35.1334512 -3.3171301 29.77131161 -3.31973076 24.40914726 C-3.32158522 22.35852261 -3.32520623 20.30789879 -3.33058357 18.25728035 C-3.33779244 15.39562336 -3.33884452 12.53402782 -3.33837891 9.67236328 C-3.34197418 8.81569061 -3.34556946 7.95901794 -3.34927368 7.0763855 C-3.33703143 0.17027539 -3.33703143 0.17027539 0 0 Z " fill="#C7C7C7" transform="translate(91.224853515625,264.886474609375)"/>
<path d="M0 0 C0.33 0 0.66 0 1 0 C1 17.16 1 34.32 1 52 C0.67 52 0.34 52 0 52 C-0.33 37.81 -0.66 23.62 -1 9 C-23.77 9 -46.54 9 -70 9 C-70.33 25.5 -70.66 42 -71 59 C-71.33 59 -71.66 59 -72 59 C-72 42.17 -72 25.34 -72 8 C-80.25 8 -88.5 8 -97 8 C-97 7.67 -97 7.34 -97 7 C-64.99 7 -32.98 7 0 7 C0 4.69 0 2.38 0 0 Z " fill="#929292" transform="translate(431,245)"/>
<path d="M0 0 C0.886875 0.185625 1.77375 0.37125 2.6875 0.5625 C5.85178811 0.98042484 7.94839642 0.80777742 11 0 C10.67 0.99 10.34 1.98 10 3 C28.81 3.495 28.81 3.495 48 4 C48 4.33 48 4.66 48 5 C15.99 5 -16.02 5 -49 5 C-49 4.67 -49 4.34 -49 4 C-32.83 3.67 -16.66 3.34 0 3 C0 2.01 0 1.02 0 0 Z " fill="#4A4A4A" transform="translate(383,236)"/>
<path d="M0 0 C0.9583374 0.00523682 1.9166748 0.01047363 2.90405273 0.01586914 C4.45576172 0.02070313 4.45576172 0.02070313 6.03881836 0.02563477 C7.12743164 0.03401367 8.21604492 0.04239258 9.33764648 0.05102539 C10.97636719 0.05779297 10.97636719 0.05779297 12.64819336 0.06469727 C15.35723144 0.07652713 18.06616248 0.09300996 20.77514648 0.11352539 C17.90540764 1.72988027 15.73050446 2.38686719 12.44702148 2.52758789 C11.64780273 2.56625977 10.84858398 2.60493164 10.02514648 2.64477539 C8.78764648 2.69118164 8.78764648 2.69118164 7.52514648 2.73852539 C6.26444336 2.7965332 6.26444336 2.7965332 4.97827148 2.85571289 C2.91091267 2.94968375 0.84306021 3.03268103 -1.22485352 3.11352539 C-1.55485352 5.75352539 -1.88485352 8.39352539 -2.22485352 11.11352539 C-2.55485352 11.11352539 -2.88485352 11.11352539 -3.22485352 11.11352539 C-3.25173502 9.46777973 -3.27119475 7.82191126 -3.28735352 6.17602539 C-3.29895508 5.25950195 -3.31055664 4.34297852 -3.32250977 3.39868164 C-3.19214137 0.34806119 -3.04629171 0.1554401 0 0 Z " fill="#C9C9C9" transform="translate(91.224853515625,264.886474609375)"/>
<path d="M0 0 C0.66 0 1.32 0 2 0 C2.33 1.32 2.66 2.64 3 4 C0.23547967 5.38226016 -2.0461363 5.09525387 -5.125 5.0625 C-6.22070312 5.05347656 -7.31640625 5.04445312 -8.4453125 5.03515625 C-9.70988281 5.01775391 -9.70988281 5.01775391 -11 5 C-11 4.34 -11 3.68 -11 3 C-10.01 3 -9.02 3 -8 3 C-8 2.34 -8 1.68 -8 1 C-5.66666667 1 -3.33333333 1 -1 1 C-0.67 0.67 -0.34 0.34 0 0 Z " fill="#F2F2F2" transform="translate(373,247)"/>
<path d="M0 0 C1.3303125 0.2784375 1.3303125 0.2784375 2.6875 0.5625 C5.85178811 0.98042484 7.94839642 0.80777742 11 0 C10.67 1.32 10.34 2.64 10 4 C1.42857143 5.42857143 1.42857143 5.42857143 -2 3 C-1.34 3 -0.68 3 0 3 C0 2.01 0 1.02 0 0 Z " fill="#262626" transform="translate(383,236)"/>
<path d="M0 0 C0.33 1.32 0.66 2.64 1 4 C-1.31 4.33 -3.62 4.66 -6 5 C-4.87312259 1.61936778 -3.78825335 0 0 0 Z " fill="#EAEAEA" transform="translate(375,247)"/>
<path d="M0 0 C1.67542976 0.28604898 3.34385343 0.61781233 5 1 C4.4225 1.268125 3.845 1.53625 3.25 1.8125 C0.9674132 3.01719859 -0.9737942 4.40798115 -3 6 C-1.125 1.125 -1.125 1.125 0 0 Z " fill="#C9C9C9" transform="translate(242,203)"/>
</svg>
